<?xml version="1.0" encoding="utf-8"?>
<!-- Generator: Adobe Illustrator 24.1.0, SVG Export Plug-In . SVG Version: 6.00 Build 0)  -->
<svg version="1.1" id="Ebene_1" xmlns="http://www.w3.org/2000/svg" xmlns:xlink="http://www.w3.org/1999/xlink" x="0px" y="0px"
	 viewBox="0 0 300 300" style="enable-background:new 0 0 300 300;" xml:space="preserve">
<style type="text/css">
	.st0{fill:#282828;stroke:#282828;stroke-width:4.4;stroke-miterlimit:10;}
	.st1{fill:#FFFFFF;}
</style>
<path class="st0" d="M261,283.3l-46.4-66.8l0,0l55.4-3.4c-1.6-0.7-45.5-21.2-45.5-21.2l45.5-21.2l-55.4-3.4l23.3-33.3l-50.6,15.3
	l-5.1-36.5L150,142.9L117.8,113l-5.1,36.5l-50.6-15.3l23.3,33.3L30,170.9L75.5,192L30,213.2l55.4,3.4l-23.3,33.3l50.6-15.3l5.1,36.5
	c0,0,26.9-25,32.1-29.9c6.9,6.4,32.1,29.9,32.1,29.9s4-28.6,5.1-36.5c8.1,5.4,38.3,25.4,38.3,25.4L261,283.3z"/>
<g id="text">
	<path class="st1" d="M220.3,199.5l-5.2,0.7l-5.6-30.1l7.7-1.1L220.3,199.5z M223.5,211.7l-8,1.1l-1-7.1l8-1.1L223.5,211.7z"/>
	<path class="st1" d="M104.5,219.2c-0.2,2.2,0.6,3.1,2.6,3.2c1.6,0.1,3-0.3,4.5-1.5l-0.5,6.9c-1.6,0.7-3.5,1-5.6,0.8
		c-4.7-0.4-8.3-3.2-7.8-8.9l1.3-17.2L93,202l0.5-6l5.9,0.4l0.6-8.5l6.8,0.5l-0.6,8.5l8.3,0.6l-0.5,6l-8.3-0.6L104.5,219.2z"/>
	<path class="st1" d="M126,210.3l-1.5,19.2l-6.8-0.5l3.2-42.7l6.8,0.5l-1.4,18.7l0.1,0c2.5-4.7,6.3-7.3,11.5-6.9
		c6.6,0.5,10.1,5.2,9.5,13.3l-1.4,19.1l-6.8-0.5l1.4-19.1c0.3-4.3-1.6-6.6-5.3-6.9C131.9,204.4,128.4,206.5,126,210.3z"/>
	<path class="st1" d="M169.7,201.1c7.7,0.6,11.8,5.2,11.3,11.4l-0.9,12c-0.3,4.2,0.2,6.1,2.3,9.3l-8-0.6c-0.9-1.7-1.3-3.6-1.3-5.6
		l0.2-2.1l-0.1,0c-1.3,4.5-3.5,7.9-10.3,7.4c-6.2-0.5-10.6-4.5-10.2-10.3c0.4-5.6,4.5-7.7,10.9-8.8l8.9-1.4c1.1-0.2,1.5-0.7,1.5-1.4
		c0.1-1.9-1.5-3.6-4.7-3.8c-4-0.3-8.7,1.2-12.3,3.7l0.6-7.4C161.4,201.6,165.7,200.8,169.7,201.1z M164.2,226.9
		c5.6,0.4,9.1-2.7,9.5-8.7l0.2-2.8l-0.1,0c-0.5,2-1.2,2.7-3.1,3.1l-6.2,1.1c-2.8,0.5-4.8,1.3-4.9,3.5
		C159.5,225.3,161,226.6,164.2,226.9z"/>
	<path class="st1" d="M197.7,226.2c-0.2,2.2,0.6,3.1,2.6,3.2c1.6,0.1,3-0.3,4.5-1.5l-0.5,6.9c-1.6,0.7-3.5,1-5.6,0.8
		c-4.7-0.4-8.3-3.2-7.8-8.9l1.3-17.2l-5.9-0.4l0.5-6l5.9,0.4l0.6-8.5l6.8,0.5l-0.6,8.5l8.3,0.6l-0.5,6l-8.3-0.6L197.7,226.2z"/>
	<path class="st1" d="M149.2,182.1l2.5-7.2l-0.1,0c-2.9,4.7-6.9,6.3-12.1,4.5c-8.7-3-11.1-12.6-8.4-20.4
		c2.6-7.6,10.1-13.1,18.7-10.2c4.9,1.7,7.2,5.3,7.1,10.7l0.1,0l6.1-17.8l6.5,2.2l-13.8,40.4L149.2,182.1z M148.5,154.9
		c-4.6-1.6-9.1,0.9-10.9,6.3c-2.1,6-0.1,11,4.7,12.6c3.7,1.3,7.5,0.4,10.8-3.2l2.4-6.9C154.5,159.4,152.6,156.3,148.5,154.9z"/>
	<path class="st1" d="M166.9,171.6c2.8-8.2,11.2-13.1,20.6-10c9.2,3.1,13.1,11.9,10.2,20.4c-3,8.7-12.1,13-20.6,10.1
		C168.2,189.2,164.1,179.8,166.9,171.6z M173.5,173.9c-1.6,4.6-0.5,10.4,5.6,12.5c6.5,2.2,10.7-2.5,12-6.5
		c1.9-5.7-0.1-10.5-5.6-12.4C180.1,165.6,175.4,168.2,173.5,173.9z"/>
	<path class="st1" d="M110.2,186.8l-25.8-34.6l5.7-4.2l25.8,34.6L110.2,186.8z"/>
</g>
</svg>
