<?xml version="1.0" encoding="utf-8"?>
<!-- Generator: Adobe Illustrator 24.1.0, SVG Export Plug-In . SVG Version: 6.00 Build 0)  -->
<svg version="1.1" id="Ebene_1" xmlns="http://www.w3.org/2000/svg" xmlns:xlink="http://www.w3.org/1999/xlink" x="0px" y="0px"
	 viewBox="0 0 300 300" style="enable-background:new 0 0 300 300;" xml:space="preserve">
<style type="text/css">
	.st0{fill:#282828;stroke:#282828;stroke-width:4.4;stroke-miterlimit:10;}
	.st1{fill:#FFFFFF;}
	.st2{font-family:'G2TGR-Medium';}
	.st3{font-size:64px;}
	.st4{font-size:64.0075px;}
	.st5{font-size:64.0072px;}
</style>
<path class="st0" d="M261,283.3l-46.4-66.8l0,0l55.4-3.4c-1.6-0.7-45.5-21.2-45.5-21.2l45.5-21.2l-55.4-3.4l23.3-33.3l-50.6,15.3
	l-5.1-36.5L150,142.9L117.8,113l-5.1,36.5l-50.6-15.3l23.3,33.3L30,170.9L75.5,192L30,213.2l55.4,3.4l-23.3,33.3l50.6-15.3l5.1,36.5
	c0,0,26.9-25,32.1-29.9c6.9,6.4,32.1,29.9,32.1,29.9s4-28.6,5.1-36.5c8.1,5.4,38.3,25.4,38.3,25.4L261,283.3z"/>
<text transform="matrix(0.99 -0.1411 0.1411 0.99 212.969 214.609)" class="st1 st2 st3">!</text>
<text transform="matrix(0.9972 7.529125e-02 -7.529125e-02 0.9972 88.8518 229.9902)" class="st1 st2 st4">that</text>
<text transform="matrix(0.9467 0.3222 -0.3222 0.9467 125.563 171.8119)" class="st1 st2 st3">do</text>
<text transform="matrix(0.8864 -0.463 0.463 0.8864 100.9321 187.6324)" class="st1 st2 st5">I</text>
</svg>
