<?xml version="1.0" encoding="utf-8"?>
<!-- Generator: Adobe Illustrator 24.1.0, SVG Export Plug-In . SVG Version: 6.00 Build 0)  -->
<svg version="1.1" id="Ebene_1" xmlns="http://www.w3.org/2000/svg" xmlns:xlink="http://www.w3.org/1999/xlink" x="0px" y="0px"
	 viewBox="0 0 300 300" style="enable-background:new 0 0 300 300;" xml:space="preserve">
<style type="text/css">
	.st0{fill:#282828;stroke:#282828;stroke-width:4.4;stroke-miterlimit:10;}
	.st1{fill:#FFFFFF;}
</style>
<path class="st0" d="M254.3,284.2c-4.3-3.2-11-8.1-15.4-11.2c-2.4-4.3-12.9-22.9-15.3-27.3c2-4.5,4.9-11.1,6.6-14.9
	c4.2,0,23,0,27.3,0c1.7-3.9,10-22.6,12.5-28.2c-2.1-5.4-13.3-34.6-15-39.1c-5.2,0-17.2,0-22.9,0c-1.5-3.9-11.3-29.1-13.1-34
	c-5.6,0-63-0.2-69.6-0.2c-1.3-3.4-4.4-11.4-5.7-14.8c-3.8,0-47.8-0.2-52.5-0.2c-1.5,3.4-5.9,13.5-9.1,20.4c-7.2,0-10.8,0.1-17.1,0
	c-2,4.5-7.5,17-9.4,21.2c-3.3,0-7.2,0-10.6,0c-1.3,3-13,29.3-15,33.9c1.2,3,7.8,20.4,9.5,24.7c4.1,0,11.2,0,16.7,0
	c1.8,4.6,11,28.7,13,33.9c5.9,0,54.1,0,58.7,0c1.3,3.5,2.4,6.3,3.8,9.8c5.3,0,49.8,0,54.4,0c1.6-3.6,3.9-8.8,5.3-11.9
	c3.4,0,7.2,0,10.2,0c3.7,3.9,24.2,25.7,28,29.7C238.8,279.1,246.5,281.6,254.3,284.2z"/>
<g id="text">
	<path class="st1" d="M240.5,220.5l-8-1.3l1.2-7l8,1.3L240.5,220.5z M241.1,207.9l-5.2-0.9l3.7-30.4l7.7,1.3L241.1,207.9z"/>
	<path class="st1" d="M107.6,231c0.2,2.2,1.2,2.9,3.1,2.8c1.6-0.2,2.9-0.8,4.2-2.3l0.7,6.8c-1.5,1-3.3,1.6-5.4,1.8
		c-4.7,0.5-8.7-1.8-9.3-7.4l-1.7-17.2l-5.9,0.6l-0.6-6l5.9-0.6l-0.8-8.5l6.8-0.7l0.8,8.5l8.3-0.8l0.6,6l-8.3,0.8L107.6,231z"/>
	<path class="st1" d="M127.3,218.6l1.9,19.2l-6.8,0.7l-4.1-42.6l6.8-0.7l1.8,18.7l0.1,0c1.7-5,4.9-8.3,10.1-8.8
		c6.6-0.6,10.9,3.4,11.6,11.5l1.9,19.1l-6.8,0.7l-1.9-19.1c-0.4-4.3-2.7-6.2-6.4-5.9C132.2,211.7,129.1,214.3,127.3,218.6z"/>
	<path class="st1" d="M168.8,202c7.7-0.8,12.5,3.1,13.1,9.3l1.2,12c0.4,4.2,1.2,6,3.8,8.8l-8,0.8c-1.2-1.5-1.9-3.4-2.3-5.3l-0.2-2.1
		l-0.1,0c-0.5,4.7-2.1,8.4-8.8,9c-6.2,0.6-11.2-2.6-11.8-8.4c-0.5-5.6,3.1-8.3,9.3-10.5l8.5-2.9c1.1-0.4,1.3-0.9,1.3-1.7
		c-0.2-1.9-2.1-3.3-5.3-3c-4,0.4-8.3,2.7-11.5,5.8l-0.7-7.3C160.8,203.9,164.8,202.4,168.8,202z M167.9,228.3
		c5.6-0.5,8.5-4.2,7.9-10.2l-0.3-2.8l-0.1,0c-0.1,2-0.7,2.9-2.5,3.5l-6,2.2c-2.7,1-4.5,2.1-4.3,4.3
		C162.9,227.6,164.7,228.6,167.9,228.3z"/>
	<path class="st1" d="M200.7,221.9c0.2,2.2,1.2,2.9,3.1,2.8c1.6-0.2,2.9-0.8,4.2-2.3l0.7,6.8c-1.5,1-3.3,1.6-5.4,1.8
		c-4.7,0.5-8.7-1.8-9.3-7.4l-1.7-17.2l-5.9,0.6l-0.6-6l5.9-0.6l-0.8-8.5l6.8-0.7l0.8,8.5l8.3-0.8l0.6,6l-8.3,0.8L200.7,221.9z"/>
	<path class="st1" d="M124.4,174.7l1.1-7.5l-0.1,0c-2,5.2-5.6,7.4-11.1,6.6c-9.1-1.4-13.2-10.4-12-18.6c1.2-7.9,7.6-14.7,16.5-13.3
		c5.1,0.8,8,3.9,8.9,9.2l0.1,0l2.8-18.6l6.7,1l-6.3,42.2L124.4,174.7z M118.9,148c-4.8-0.7-8.8,2.5-9.6,8.2
		c-0.9,6.3,1.9,10.8,6.9,11.6c3.9,0.6,7.5-1,10-5.1l1.1-7.2C125.6,151.4,123.1,148.6,118.9,148z"/>
	<path class="st1" d="M139.9,161.2c1.3-8.6,8.7-14.9,18.4-13.5c9.6,1.4,15,9.3,13.7,18.3c-1.4,9.1-9.6,14.9-18.5,13.6
		C144.3,178.2,138.6,169.8,139.9,161.2z M146.8,162.2c-0.7,4.8,1.4,10.4,7.7,11.3c6.8,1,10-4.3,10.7-8.6c0.9-5.9-2-10.3-7.7-11.2
		C151.8,152.9,147.7,156.2,146.8,162.2z"/>
	<path class="st1" d="M68.2,200.1l1.4-43.4l7.1,0.2l-1.4,43.4L68.2,200.1z"/>
</g>
</svg>
