<?xml version="1.0" encoding="utf-8"?>
<!-- Generator: Adobe Illustrator 24.1.0, SVG Export Plug-In . SVG Version: 6.00 Build 0)  -->
<svg version="1.1" id="Ebene_1" xmlns="http://www.w3.org/2000/svg" xmlns:xlink="http://www.w3.org/1999/xlink" x="0px" y="0px"
	 viewBox="0 0 300 300" style="enable-background:new 0 0 300 300;" xml:space="preserve">
<style type="text/css">
	.st0{fill:#282828;stroke:#282828;stroke-width:4.4;stroke-miterlimit:10;}
	.st1{fill:#FFFFFF;}
</style>
<path class="st0" d="M223.9,285.6c-9.3-0.3-15.7-3.8-20.9-6.8c-7.4-4.2-11.5-9.5-13.7-14.9c-3.7-9.2-1.4-18.5,1-22.4
	c9.7,8.9,26.3,10.2,39,5.1c12.7-5.1,21.5-16.8,15.5-33.8c17.7,0,25.1-14.5,25.2-28.9s-7.2-28.6-18.8-28.1c8.6-7.5,8.3-18.8,2.3-26.1
	c-6.1-7.3-17.9-10.5-32.6-1.9c-6.1-14.6-18.4-19.1-29.4-17.6s-20.8,9.1-22.1,18.5c-7.2-12.5-26.8-17.7-44.3-15.9
	c-17.6,1.8-33.2,10.7-32.6,26.4c-9.3-7.9-25.4-6.5-37.1,0.5s-19,19.9-10.6,35c-14,1.8-17.2,17.6-13,30.7s15.6,23.6,31,14.8
	c-1.1,16.9,2.7,24.8,9.5,27.5c8.1,3.3,20.3-0.6,33.3-5.1c6.3-2.2,12.9-4.5,19.3-6.2c9.1-2.4,17.9-3.6,25.1-1.2
	c6.8,2.2,12.3,7.6,15.5,17.9c1.2,3.8,2.6,7.2,4.1,10.2c3,6,6.7,10.6,10.7,14c6.2,5.4,13.2,8.1,19.8,9.3
	C212.9,289.1,223.9,285.6,223.9,285.6z"/>
<g id="text">
	<path class="st1" d="M215,235.2l-7.3-3.3l2.9-6.5l7.3,3.3L215,235.2z M218.9,223.2l-4.8-2.2l11.4-28.4l7.1,3.2L218.9,223.2z"/>
	<path class="st1" d="M207.6,138.3c-1.8-1.4-2.9-1.2-4.1,0.4c-1,1.3-1.4,2.7-1.2,4.6l-5.4-4.2c0.3-1.7,1.1-3.5,2.4-5.1
		c2.9-3.7,7.2-5.1,11.8-1.7l13.6,10.5l3.6-4.7l4.8,3.7l-3.6,4.7l6.8,5.2l-4.2,5.4l-6.8-5.2l-5.1,6.6l-4.8-3.7l5.1-6.6L207.6,138.3z"
		/>
	<path class="st1" d="M203.2,161.1L188,149.4l4.2-5.4l33.9,26.1l-4.2,5.4L207,164l-0.1,0.1c2.5,4.7,2.7,9.2-0.5,13.4
		c-4.1,5.3-9.9,5.6-16.4,0.6l-15.2-11.7l4.2-5.4l15.2,11.7c3.4,2.7,6.4,2.3,8.6-0.6C204.9,169.4,205.1,165.3,203.2,161.1z"/>
	<path class="st1" d="M186.9,202.8c-4.7,6.1-10.8,7-15.8,3.2l-9.5-7.3c-3.3-2.6-5.2-3.2-9-3.2l4.9-6.4c1.9,0.2,3.8,0.9,5.4,2
		l1.7,1.3l0.1-0.1c-3-3.6-4.7-7.2-0.5-12.6c3.8-5,9.6-6.4,14.2-2.8c4.5,3.4,3.9,8,1.3,13.9l-3.7,8.2c-0.5,1-0.2,1.6,0.4,2.1
		c1.5,1.2,3.8,0.7,5.8-1.9c2.5-3.2,3.8-7.9,3.6-12.3l5.8,4.5C191,195.6,189.4,199.5,186.9,202.8z M168.4,184
		c-3.4,4.5-2.8,9.1,2,12.7l2.2,1.7l0.1-0.1c-1.4-1.5-1.6-2.5-0.9-4.3l2.5-5.8c1.1-2.7,1.6-4.7-0.2-6
		C172.3,180.9,170.3,181.5,168.4,184z"/>
	<path class="st1" d="M150.5,212.3c-1.8-1.4-2.9-1.2-4.1,0.4c-1,1.3-1.4,2.7-1.2,4.6l-5.4-4.2c0.3-1.7,1.1-3.5,2.4-5.1
		c2.9-3.7,7.2-5.1,11.8-1.7l13.6,10.5l3.6-4.7l4.8,3.7l-3.6,4.7l6.8,5.2l-4.2,5.4l-6.8-5.2l-5.1,6.6l-4.8-3.7l5.1-6.6L150.5,212.3z"
		/>
	<path class="st1" d="M112.9,193.7l-5.1,5.7l0.1,0.1c4.5-3.2,8.8-3.1,12.9,0.6c6.9,6.2,5.2,16-0.3,22.1c-5.4,5.9-14.4,8-21.1,2
		c-3.8-3.4-4.5-7.7-2.3-12.6l-0.1-0.1l-12.6,14l-5.1-4.6l28.6-31.7L112.9,193.7z M102.8,219c3.6,3.2,8.7,2.8,12.5-1.5
		c4.3-4.7,4.4-10.1,0.6-13.5c-2.9-2.6-6.8-3.3-11.2-1.3l-4.9,5.4C99.1,212.5,99.6,216.1,102.8,219z"/>
	<path class="st1" d="M92.6,196.4c-5.8,6.4-15.5,7.6-22.8,1c-7.2-6.5-7.4-16.1-1.3-22.8c6.2-6.9,16.3-7.1,22.9-1.1
		C98.3,179.8,98.4,189.9,92.6,196.4z M87.4,191.7c3.3-3.6,4.6-9.4-0.2-13.7c-5.1-4.6-10.8-2-13.6,1.2c-4,4.5-4,9.7,0.3,13.6
		C78.1,196.7,83.4,196.2,87.4,191.7z"/>
	<path class="st1" d="M108.3,137.4l42.2,10l-1.6,6.9l-42.2-10L108.3,137.4z"/>
</g>
</svg>
