<?xml version="1.0" encoding="utf-8"?>
<!-- Generator: Adobe Illustrator 24.1.0, SVG Export Plug-In . SVG Version: 6.00 Build 0)  -->
<svg version="1.1" id="Ebene_1" xmlns="http://www.w3.org/2000/svg" xmlns:xlink="http://www.w3.org/1999/xlink" x="0px" y="0px"
	 viewBox="0 0 300 300" style="enable-background:new 0 0 300 300;" xml:space="preserve">
<style type="text/css">
	.st0{fill:#282828;stroke:#282828;stroke-width:4.4;stroke-miterlimit:10;}
	.st1{fill:#FFFFFF;}
</style>
<path class="st0" d="M256,285c-4.6-3.4-9.4-9.7-13.3-17.4c-3.9-7.7-6.8-16.8-7.4-25.9c1.9-0.6,4.4-1.6,9.8-3.9
	c12.1-6.4,19.9-18.1,23.2-31.4c3.3-13.3,2-28.2-4-40.6c-4.2-9.8-11-18.2-19.1-25.1s-17.6-12.6-27.3-16.8c-7.9-3.1-16.8-5.7-26.2-7.8
	c-9.4-2.1-19.4-3.6-29.6-4.5c-9.3-0.8-18.7-1-28.1-0.7c-9.6,0.4-19.2,1.5-28.4,3.4c-8.9,1.8-17.5,4.4-25.5,7.8
	c-10.6,4.5-20.2,10.5-28,18.1c-4.8,4.6-8.9,9.9-12.3,15.9c-4.6,8-7.8,17.3-9.3,27.9c-0.9,7.4-0.6,15.1,0.9,22.5
	c1.4,7.4,4,14.6,7.6,21.2c3.6,6.6,8.2,12.6,13.7,17.6s12,9,19.2,11.6c5.7,1.9,11.2,3.4,16.8,4.5s11.5,1.9,17.8,2.5
	c12.8,1.2,28.1-0.4,42.1-2.8s23.8-4.8,34.5-7.3c11.7-2.5,23.3-5,30.7-6.6c5.1,11.2,13.1,20.1,21.1,26.4C243,279.9,251,283.7,256,285
	z"/>
<g id="text">
	<path class="st1" d="M223.5,213.4l-7.9-1.5l1.3-7l7.9,1.5L223.5,213.4z M224.4,200.9l-5.2-0.9l4.2-30.3l7.7,1.4L224.4,200.9z"/>
	<path class="st1" d="M86.4,230c0,2.2,0.9,3,2.8,3c1.6,0,3-0.5,4.4-1.9l0,6.9c-1.6,0.8-3.4,1.2-5.5,1.2c-4.7,0-8.5-2.6-8.5-8.3
		l0-17.2l-5.9,0l0-6l5.9,0l0-8.6l6.8,0l0,8.6l8.3,0l0,6l-8.3,0L86.4,230z"/>
	<path class="st1" d="M107.2,219.5l0,19.3l-6.8,0l0-42.8l6.8,0l0,18.8h0.1c2.2-4.8,5.7-7.7,10.9-7.7c6.6,0,10.5,4.5,10.5,12.6
		l0,19.2l-6.8,0l0-19.2c0-4.3-2.1-6.5-5.8-6.5C112.7,213.2,109.3,215.5,107.2,219.5z"/>
	<path class="st1" d="M150.1,207.1c7.8,0,12.1,4.3,12.1,10.5l0,12c0,4.2,0.6,6.1,3,9.1l-8.1,0c-1.1-1.6-1.6-3.5-1.7-5.5l0-2.1h-0.1
		c-1,4.6-2.9,8.1-9.7,8.1c-6.3,0-10.9-3.7-10.9-9.6c0-5.6,3.9-8,10.2-9.5l8.7-2.1c1.1-0.2,1.4-0.8,1.4-1.5c0-1.9-1.8-3.5-5-3.5
		c-4,0-8.6,1.9-12,4.6l0-7.4C141.9,208.2,146,207.1,150.1,207.1z M146.6,233.2c5.6,0,8.9-3.3,8.9-9.4l0-2.8h-0.1
		c-0.3,2-1,2.8-2.9,3.3l-6.1,1.6c-2.8,0.7-4.7,1.6-4.7,3.8C141.7,231.9,143.4,233.2,146.6,233.2z"/>
	<path class="st1" d="M179.9,230c0,2.2,0.9,3,2.8,3c1.6,0,3-0.5,4.4-1.9l0,6.9c-1.5,0.8-3.4,1.2-5.5,1.2c-4.7,0-8.5-2.6-8.5-8.3
		l0-17.2l-5.9,0l0-6l5.9,0l0-8.6l6.8,0l0,8.6l8.3,0l0,6l-8.3,0L179.9,230z"/>
	<path class="st1" d="M148.4,173l0-7.6h-0.1c-1.2,5.4-4.5,8.2-10,8.2c-9.2,0-14.6-8.4-14.6-16.6c0-8,5.3-15.6,14.4-15.6
		c5.1,0,8.5,2.7,10.2,7.8h0.1l0-18.8l6.8,0l0,42.7L148.4,173z M139,147.5c-4.8,0-8.3,3.8-8.3,9.5c0,6.4,3.5,10.4,8.6,10.4
		c3.9,0,7.3-2.1,9.2-6.5l0-7.3C146.1,149.8,143.2,147.4,139,147.5z"/>
	<path class="st1" d="M161.7,157.4c0-8.7,6.4-16.1,16.2-16.1c9.7,0,16.2,7,16.3,16c0,9.2-7.3,16.2-16.2,16.2
		C168.6,173.5,161.7,166,161.7,157.4z M168.7,157.4c0,4.9,2.9,10,9.3,10c6.9,0,9.3-5.8,9.3-10c0-6-3.5-9.9-9.3-9.9
		C172.3,147.4,168.7,151.3,168.7,157.4z"/>
	<path class="st1" d="M91,173.2l-11.5-41.9l6.9-1.9l11.5,41.9L91,173.2z"/>
</g>
</svg>
