<?xml version="1.0" encoding="utf-8"?>
<!-- Generator: Adobe Illustrator 24.1.0, SVG Export Plug-In . SVG Version: 6.00 Build 0)  -->
<svg version="1.1" id="Ebene_1" xmlns="http://www.w3.org/2000/svg" xmlns:xlink="http://www.w3.org/1999/xlink" x="0px" y="0px"
	 viewBox="0 0 300 300" style="enable-background:new 0 0 300 300;" xml:space="preserve">
<style type="text/css">
	.st0{fill:#282828;stroke:#282828;stroke-width:4.4;stroke-miterlimit:10;}
	.st1{fill:#FFFFFF;}
	.st2{font-family:'G2TGR-Medium';}
	.st3{font-size:63.994px;}
	.st4{font-size:64px;}
	.st5{font-size:63.9938px;}
</style>
<path class="st0" d="M256,285c-4.6-3.4-9.4-9.7-13.3-17.4c-3.9-7.7-6.8-16.8-7.4-25.9c1.9-0.6,4.4-1.6,9.8-3.9
	c12.1-6.4,19.9-18.1,23.2-31.4c3.3-13.3,2-28.2-4-40.6c-4.2-9.8-11-18.2-19.1-25.1s-17.6-12.6-27.3-16.8c-7.9-3.1-16.8-5.7-26.2-7.8
	c-9.4-2.1-19.4-3.6-29.6-4.5c-9.3-0.8-18.7-1-28.1-0.7c-9.6,0.4-19.2,1.5-28.4,3.4c-8.9,1.8-17.5,4.4-25.5,7.8
	c-10.6,4.5-20.2,10.5-28,18.1c-4.8,4.6-8.9,9.9-12.3,15.9c-4.6,8-7.8,17.3-9.3,27.9c-0.9,7.4-0.6,15.1,0.9,22.5
	c1.4,7.4,4,14.6,7.6,21.2c3.6,6.6,8.2,12.6,13.7,17.6s12,9,19.2,11.6c5.7,1.9,11.2,3.4,16.8,4.5s11.5,1.9,17.8,2.5
	c12.8,1.2,28.1-0.4,42.1-2.8s23.8-4.8,34.5-7.3c11.7-2.5,23.3-5,30.7-6.6c5.1,11.2,13.1,20.1,21.1,26.4C243,279.9,251,283.7,256,285
	z"/>
<text transform="matrix(0.9836 0.1801 -0.1801 0.9836 207.0548 215.2958)" class="st1 st2 st3">!</text>
<text transform="matrix(1 7.300000e-04 -7.300000e-04 1 73.5161 233.8949)" class="st1 st2 st4">that</text>
<text transform="matrix(1 -7.000000e-04 7.000000e-04 1 119.7017 175.4134)" class="st1 st2 st4">do</text>
<text transform="matrix(0.9645 -0.2639 0.2639 0.9645 87.4407 175.423)" class="st1 st2 st5">I</text>
</svg>
