<?xml version="1.0" encoding="utf-8"?>
<!-- Generator: Adobe Illustrator 24.1.0, SVG Export Plug-In . SVG Version: 6.00 Build 0)  -->
<svg version="1.1" id="Ebene_1" xmlns="http://www.w3.org/2000/svg" xmlns:xlink="http://www.w3.org/1999/xlink" x="0px" y="0px"
	 viewBox="0 0 300 300" style="enable-background:new 0 0 300 300;" xml:space="preserve">
<style type="text/css">
	.st0{fill:#282828;stroke:#282828;stroke-width:4.4;stroke-miterlimit:18;}
	.st1{fill:#FFFFFF;}
	.st2{font-family:'G2TGR-Medium';}
	.st3{font-size:64px;}
</style>
<path class="st0" d="M252.9,263.9c-7.6-8.6-15.1-18.2-20.9-27.7c-4.1-6.8-11.8-18.4-11.8-30.1c0-10.3,6.1-16.1,11.1-19.5
	c7.6-5.3,20-8.6,38.7-9.1c-33.6-5.8-49.2-11.6-51.6-19.8c-2.5-8.6,9.6-19.9,30.9-37c-30.1,17-45.1,22.9-50.3,17
	c-5.7-6.5,0.4-27.3,11.4-63.2c-19.6,34.4-32.2,48.1-43.2,46.7c-11.6-1.4-21.3-19.6-35.4-47.8c2.5,38.6,1,57.7-8.1,61.1
	c-10.2,3.8-29.9-12.1-64-42.2c25,32.6,35.9,50.3,30,57.9c-5.3,7-24.4,5.7-59.1-0.1c30.3,11.2,50.9,17.9,52,26.6
	c1,7.9-14.1,17.4-52.7,33.2c42.2-8,64.8-14.7,73-6.6c6.4,6.3,3.9,21.6-4.9,52.2c12.6-21.3,30.9-33.4,46.4-30.7
	c11.3,1.9,21.1,11.6,26.2,31c1.6-8.3,3.9-14.6,6.7-19.1c3.2-5,7-7.9,11.3-9.2c3.6-1.1,7.6-0.9,11.8,0.1c3.8,0.9,7.7,2.6,11.7,4.7
	c5.5,2.9,11,6.8,16.5,10.9C237.4,250,245.8,257.7,252.9,263.9z"/>
<text transform="matrix(0.5695 0.822 -0.822 0.5695 162.7218 222.7622)" class="st1 st2 st3">!</text>
<text transform="matrix(0.9509 -0.3095 0.3095 0.9509 111.2332 225.2996)" class="st1 st2 st3">that</text>
<text transform="matrix(0.9841 -0.1777 0.1777 0.9841 122.8789 168.628)" class="st1 st2 st3">do</text>
<text transform="matrix(0.8499 -0.5269 0.5269 0.8499 109.48 173.0585)" class="st1 st2 st3">I</text>
</svg>
