<?xml version="1.0" encoding="utf-8"?>
<!-- Generator: Adobe Illustrator 24.1.0, SVG Export Plug-In . SVG Version: 6.00 Build 0)  -->
<svg version="1.1" id="Ebene_1" xmlns="http://www.w3.org/2000/svg" xmlns:xlink="http://www.w3.org/1999/xlink" x="0px" y="0px"
	 viewBox="0 0 300 300" style="enable-background:new 0 0 300 300;" xml:space="preserve">
<style type="text/css">
	.st0{fill:#282828;stroke:#282828;stroke-width:4.4;stroke-miterlimit:10;}
	.st1{fill:#FFFFFF;}
	.st2{font-family:'G2TGR-Medium';}
	.st3{font-size:64px;}
	.st4{font-size:64.0048px;}
</style>
<path class="st0" d="M254.3,284.2c-4.3-3.2-11-8.1-15.4-11.2c-2.4-4.3-12.9-22.9-15.3-27.3c2-4.5,4.9-11.1,6.6-14.9
	c4.2,0,23,0,27.3,0c1.7-3.9,10-22.6,12.5-28.2c-2.1-5.4-13.3-34.6-15-39.1c-5.2,0-17.2,0-22.9,0c-1.5-3.9-11.3-29.1-13.1-34
	c-5.6,0-63-0.2-69.6-0.2c-1.3-3.4-4.4-11.4-5.7-14.8c-3.8,0-47.8-0.2-52.5-0.2c-1.5,3.4-5.9,13.5-9.1,20.4c-7.2,0-10.8,0.1-17.1,0
	c-2,4.5-7.5,17-9.4,21.2c-3.3,0-7.2,0-10.6,0c-1.3,3-13,29.3-15,33.9c1.2,3,7.8,20.4,9.5,24.7c4.1,0,11.2,0,16.7,0
	c1.8,4.6,11,28.7,13,33.9c5.9,0,54.1,0,58.7,0c1.3,3.5,2.4,6.3,3.8,9.8c5.3,0,49.8,0,54.4,0c1.6-3.6,3.9-8.8,5.3-11.9
	c3.4,0,7.2,0,10.2,0c3.7,3.9,24.2,25.7,28,29.7C238.8,279.1,246.5,281.6,254.3,284.2z"/>
<text transform="matrix(0.9866 0.1632 -0.1632 0.9866 232.5231 221.6844)" class="st1 st2 st3">!</text>
<text transform="matrix(0.9953 -9.690000e-02 9.690000e-02 0.9953 96.2006 242.4902)" class="st1 st2 st3">that</text>
<text transform="matrix(0.9891 0.1475 -0.1475 0.9891 96.2022 169.2249)" class="st1 st2 st4">do</text>
<text transform="matrix(0.9995 3.230000e-02 -3.230000e-02 0.9995 62.0312 199.2456)" class="st1 st2 st3">I</text>
</svg>
