<?xml version="1.0" encoding="utf-8"?>
<!-- Generator: Adobe Illustrator 24.1.0, SVG Export Plug-In . SVG Version: 6.00 Build 0)  -->
<svg version="1.1" id="Ebene_1" xmlns="http://www.w3.org/2000/svg" xmlns:xlink="http://www.w3.org/1999/xlink" x="0px" y="0px"
	 viewBox="0 0 300 300" style="enable-background:new 0 0 300 300;" xml:space="preserve">
<style type="text/css">
	.st0{fill:#282828;stroke:#282828;stroke-width:4.4;stroke-miterlimit:10;}
	.st1{fill:#FFFFFF;}
	.st2{font-family:'G2TGR-Medium';}
	.st3{font-size:63.9932px;}
</style>
<path class="st0" d="M259.6,279c-5.1-12.4-8.2-20.1-11-26.9c-2.8-6.8-11-26.9-11-26.9l11.4-1.4c6.5-0.8,12.1-4.4,15.9-9.6
	c3.8-5.2,5.8-12.2,5-19.1c-0.8-6.9-1.1-9.1-2.3-19.4c-1.2-10.3-1.7-14.6-2.3-19.4c-0.6-4.8-3.3-11.7-7.2-15.8
	c-3.9-4.1-9.4-6.8-14.8-7.1c-5.3-0.2-37.2-1.7-45.3-2.1c-8.1-0.4-40.8-1.9-48.8-2.2c-8-0.4-48.5-2.2-56.2-2.6s-32.2-1.4-37.9-1.7
	c-9.8-0.3-14,2.9-18.5,7.8c-4.5,4.9-6.9,11.9-6.6,19.4s1.5,33.6,1.7,38.1c0.2,4.6,1.3,30.8,1.7,38.1c0.4,7.4,3.8,14.4,8.5,18.7
	s11.4,6.6,17.6,5.6s32.6-5.2,38-6.1c5.3-0.8,35.9-5.7,40.1-6.4c4.2-0.7,17.9-2.8,23.3-3.7s14.2-2.3,19-3c4.8-0.8,27.1-4.3,35.7-5.7
	c4.5,5.2,18.3,21.3,22,25.6S251.5,269.6,259.6,279z"/>
<text transform="matrix(0.6691 -0.7431 0.7431 0.6691 235.307 216.057)" class="st1 st2 st3">!</text>
<text transform="matrix(0.6691 -0.7431 0.7431 0.6691 142.6637 244.2581)" class="st1 st2 st3">that</text>
<text transform="matrix(0.6691 -0.7431 0.7431 0.6691 91.7875 226.4071)" class="st1 st2 st3">do</text>
<text transform="matrix(0.6691 -0.7431 0.7431 0.6691 68.2176 174.5329)" class="st1 st2 st3">I</text>
</svg>
