<?xml version="1.0" encoding="utf-8"?>
<!-- Generator: Adobe Illustrator 24.1.0, SVG Export Plug-In . SVG Version: 6.00 Build 0)  -->
<svg version="1.1" id="Ebene_1" xmlns="http://www.w3.org/2000/svg" xmlns:xlink="http://www.w3.org/1999/xlink" x="0px" y="0px"
	 viewBox="0 0 300 300" style="enable-background:new 0 0 300 300;" xml:space="preserve">
<style type="text/css">
	.st0{fill:#282828;stroke:#282828;stroke-width:4.4;stroke-miterlimit:10;}
	.st1{fill:#FFFFFF;}
	.st2{font-family:'G2TGR-Medium';}
	.st3{font-size:64.0052px;}
	.st4{font-size:64px;}
</style>
<g>
	<path class="st0" d="M223.9,285.6c-9.3-0.3-15.7-3.8-20.9-6.8c-7.4-4.2-11.5-9.5-13.7-14.9c-3.7-9.2-1.4-18.5,1-22.4
		c9.7,8.9,26.3,10.2,39,5.1c12.7-5.1,21.5-16.8,15.5-33.8c17.7,0,25.1-14.5,25.2-28.9s-7.2-28.6-18.8-28.1
		c8.6-7.5,8.3-18.8,2.3-26.1c-6.1-7.3-17.9-10.5-32.6-1.9c-6.1-14.6-18.4-19.1-29.4-17.6s-20.8,9.1-22.1,18.5
		c-7.2-12.5-26.8-17.7-44.3-15.9c-17.6,1.8-33.2,10.7-32.6,26.4c-9.3-7.9-25.4-6.5-37.1,0.5s-19,19.9-10.6,35
		c-14,1.8-17.2,17.6-13,30.7s15.6,23.6,31,14.8c-1.1,16.9,2.7,24.8,9.5,27.5c8.1,3.3,20.3-0.6,33.3-5.1c6.3-2.2,12.9-4.5,19.3-6.2
		c9.1-2.4,17.9-3.6,25.1-1.2c6.8,2.2,12.3,7.6,15.5,17.9c1.2,3.8,2.6,7.2,4.1,10.2c3,6,6.7,10.6,10.7,14c6.2,5.4,13.2,8.1,19.8,9.3
		C212.9,289.1,223.9,285.6,223.9,285.6z"/>
</g>
<text transform="matrix(0.9115 0.4114 -0.4114 0.9115 202.9288 226.6013)" class="st1 st2 st3">!</text>
<text transform="matrix(-0.6107 0.7919 -0.7919 -0.6107 206.372 121.3248)" class="st1 st2 st4">that</text>
<text transform="matrix(-0.7421 -0.6703 0.6703 -0.7421 134.8564 208.7558)" class="st1 st2 st4">do</text>
<text transform="matrix(-0.2312 0.9729 -0.9729 -0.2312 110.3624 135.2511)" class="st1 st2 st4">I</text>
</svg>
