<?xml version="1.0" encoding="utf-8"?>
<!-- Generator: Adobe Illustrator 24.1.0, SVG Export Plug-In . SVG Version: 6.00 Build 0)  -->
<svg version="1.1" id="Ebene_1" xmlns="http://www.w3.org/2000/svg" xmlns:xlink="http://www.w3.org/1999/xlink" x="0px" y="0px"
	 viewBox="0 0 300 300" style="enable-background:new 0 0 300 300;" xml:space="preserve">
<style type="text/css">
	.st0{fill:#282828;stroke:#282828;stroke-width:4.4;stroke-miterlimit:10;}
	.st1{fill:#FFFFFF;}
	.st2{font-family:'G2TGR-Medium';}
	.st3{font-size:64px;}
</style>
<path class="st0" d="M243.6,285l-2.4-11.4l-4.9-22.7l-2.4-11.4c5.6-3.5,10.6-7.4,15.1-11.5c4.4-4.1,8.2-8.6,11.4-13.3
	c3.1-4.7,5.5-9.6,7.2-14.7c1.6-5.1,2.5-10.4,2.5-15.8c0-10.7-3.4-20.8-9.4-30.1s-14.8-17.6-25.7-24.6c-10.9-7-23.8-12.7-38.1-16.6
	c-14.3-3.9-30.1-6.1-46.7-6.1s-32.3,2.2-46.7,6.1s-27.3,9.6-38.2,16.6s-19.7,15.3-25.8,24.6c-6.1,9.2-9.5,19.4-9.5,30.1
	s3.4,20.9,9.5,30.1s14.9,17.6,25.8,24.6s23.8,12.7,38.2,16.6s30.1,6.1,46.7,6.1c4.4,0,8.7-0.1,12.9-0.5s8.4-0.7,12.5-1.3
	c4.1-0.6,8.1-1.3,12.1-2.1c3.9-0.8,7.8-1.8,11.5-2.9l11.1,7.6l22.2,15.1L243.6,285z"/>
<text transform="matrix(0.565 0.8251 -0.8251 0.565 194.276 219.9574)" class="st1 st2 st3">!</text>
<text transform="matrix(0.9327 0.3607 -0.3607 0.9327 48.722 209.1935)" class="st1 st2 st3">that</text>
<text transform="matrix(0.967 -0.2547 0.2547 0.967 162.2146 191.0673)" class="st1 st2 st3">do</text>
<text transform="matrix(0.9737 -0.2279 0.2279 0.9737 114.3718 169.7328)" class="st1 st2 st3">I</text>
</svg>
