<?xml version="1.0" encoding="utf-8"?>
<!-- Generator: Adobe Illustrator 24.1.0, SVG Export Plug-In . SVG Version: 6.00 Build 0)  -->
<svg version="1.1" id="Ebene_1" xmlns="http://www.w3.org/2000/svg" xmlns:xlink="http://www.w3.org/1999/xlink" x="0px" y="0px"
	 viewBox="0 0 300 300" style="enable-background:new 0 0 300 300;" xml:space="preserve">
<style type="text/css">
	.st0{fill:#282828;stroke:#282828;stroke-width:4.4;stroke-miterlimit:10;}
	.st1{fill:#FFFFFF;}
</style>
<path class="st0" d="M266.1,279l-8.5-8.7l-8.5-8.7l9.7-6.8l-11.5-13.6c4.9-3.6,11-8.6,15.4-15c5.8-8.5,9.6-20.9,8.6-29.2
	c-0.9-7.1-7.1-17.7-17.7-24.7c2.7-10,3.1-18.6,1.7-25.7c-2.6-13.5-11.2-22.1-21.6-26.8c-16-7.1-36.3-4.9-45.5,3.9
	c-11.7-11.9-29.2-14-44.5-9.6s-28.5,15.3-31.4,29.2c-15.3-5.1-29.2-5.3-41-2.2c-14.9,3.8-26.5,12.8-33.7,23.5
	c-6,8.9-8.8,19-7.9,28.6c1.1,11.1,7.3,21.4,19.9,27.9c-3.8,8.3-1,21.1,13.8,28.3c9.1,4.4,22.6,6.6,41.9,4.4
	c12.2-1.4,26.7-4.6,43.7-10.2c6.7,5.4,15.4,8.4,24.6,9.9c8.2,1.3,16.9,1.4,25.1,0.9c17.6-1.1,33.4-5.2,38.6-7l9.1,6.8l-8.9,6.9
	l14.4,9L266.1,279z"/>
<g id="text">
	<path class="st1" d="M253.3,215.7l-5.3,0.1l-2-30.5l7.8-0.2L253.3,215.7z M255,228.2l-8.1,0.2l-0.2-7.1l8.1-0.2L255,228.2z"/>
	<path class="st1" d="M135,160c-1.3,1.8-1,3,0.5,4.1c1.3,0.9,2.7,1.3,4.7,1l-3.9,5.6c-1.7-0.2-3.5-0.9-5.2-2.1
		c-3.9-2.7-5.5-7-2.2-11.7l9.9-14.1l-4.8-3.4l3.4-4.9l4.8,3.4l4.9-7l5.6,3.9l-4.9,7l6.8,4.8l-3.4,4.9l-6.8-4.8L135,160z"/>
	<path class="st1" d="M158,163.3l-11,15.8l-5.6-3.9l24.5-35.1l5.6,3.9l-10.8,15.4l0.1,0.1c4.5-2.7,9.1-3.1,13.4-0.1
		c5.4,3.8,6,9.7,1.4,16.3l-11,15.7l-5.6-3.9l11-15.7c2.5-3.6,2-6.5-1-8.6C166.2,161.3,162.1,161.2,158,163.3z"/>
	<path class="st1" d="M200.4,177.7c6.4,4.4,7.5,10.5,3.9,15.6l-6.9,9.9c-2.4,3.5-3,5.3-2.8,9.2l-6.6-4.6c0.1-1.9,0.7-3.8,1.7-5.5
		l1.2-1.7l-0.1-0.1c-3.4,3.2-7,5-12.6,1.1c-5.1-3.6-6.8-9.3-3.5-14.1c3.2-4.6,7.8-4.3,13.9-2l8.4,3.3c1.1,0.4,1.6,0.2,2.1-0.5
		c1.1-1.6,0.5-3.9-2.1-5.7c-3.3-2.3-8.1-3.4-12.5-3l4.2-6C193,173.9,197,175.3,200.4,177.7z M182.5,197c4.6,3.2,9.2,2.3,12.6-2.6
		l1.6-2.3l-0.1-0.1c-1.4,1.5-2.4,1.7-4.2,1.1l-6-2.2c-2.7-1-4.7-1.3-6,0.5C179.2,193.2,179.9,195.2,182.5,197z"/>
	<path class="st1" d="M211.6,213.5c-1.3,1.8-1,3,0.5,4.1c1.3,0.9,2.7,1.3,4.7,1l-3.9,5.6c-1.7-0.2-3.5-0.9-5.2-2.1
		c-3.9-2.7-5.5-7-2.2-11.7l9.9-14.1l-4.8-3.4l3.4-4.9l4.8,3.4l4.9-7l5.6,3.9l-4.9,7l6.8,4.8l-3.4,4.9l-6.8-4.8L211.6,213.5z"/>
	<path class="st1" d="M101.3,225.5l2.1-7.3l-0.1,0c-2.7,4.8-6.6,6.6-11.9,5.1c-8.9-2.6-11.7-12.1-9.4-20c2.2-7.7,9.5-13.5,18.2-11
		c4.9,1.4,7.4,4.9,7.6,10.3l0.1,0l5.3-18.1l6.5,1.9l-11.9,41L101.3,225.5z M99.4,198.4c-4.6-1.3-9,1.3-10.6,6.8
		c-1.8,6.1,0.4,11,5.3,12.4c3.8,1.1,7.5,0.1,10.6-3.7l2-7C105.6,202.6,103.5,199.6,99.4,198.4z"/>
	<path class="st1" d="M118.5,214.2c2.4-8.3,10.6-13.6,20.1-10.9c9.3,2.7,13.6,11.3,11.1,19.9c-2.6,8.9-11.5,13.5-20.1,11
		C120.6,231.7,116,222.6,118.5,214.2z M125.1,216.2c-1.4,4.7,0,10.5,6.1,12.2c6.6,1.9,10.5-2.9,11.7-7.1c1.7-5.8-0.6-10.5-6.2-12.1
		C131.3,207.7,126.8,210.4,125.1,216.2z"/>
	<path class="st1" d="M59.2,217.1L53.8,174l7.1-0.9l5.3,43.1L59.2,217.1z"/>
</g>
</svg>
