<?xml version="1.0" encoding="utf-8"?>
<!-- Generator: Adobe Illustrator 24.1.0, SVG Export Plug-In . SVG Version: 6.00 Build 0)  -->
<svg version="1.1" id="Ebene_1" xmlns="http://www.w3.org/2000/svg" xmlns:xlink="http://www.w3.org/1999/xlink" x="0px" y="0px"
	 viewBox="0 0 300 300" style="enable-background:new 0 0 300 300;" xml:space="preserve">
<style type="text/css">
	.st0{fill:#282828;stroke:#282828;stroke-width:4.4;stroke-miterlimit:10;}
	.st1{fill:#FFFFFF;}
</style>
<path class="st0" d="M261.9,279l-10.6-15.7l-10.6-15.7l2.9-11.9l1-4c2.6,0.1,11.9,1.1,14,1.4c2.1,0.3,9.6,1.7,11.2,2.1
	c-1.9-7.3-3-17.1-3.7-28s-0.8-22.9-0.6-34.7c0.2-11.8,0.8-23.4,1.5-33.4s1.8-18.5,2.8-24c-8.9,2.5-26.3,3.9-47.9,4.5
	s-47.3,0.3-72.9-0.8s-51.2-3-72.4-5.6s-38.1-5.9-46.4-9.8c2.9,8,4.8,18.7,5.9,30.4s1.3,24.7,1,37.2s-1.2,24.7-2.4,35.1
	s-2.8,18.9-4.5,24c10.6-1.8,23.6-3.1,38.2-3.9c14.6-0.8,30.9-1.2,48-1.1s35.1,0.6,53.2,1.6c18.1,0.9,36.2,2.3,53.6,4v4.2v12.8
	l19.4,15.6L261.9,279z"/>
<g id="text">
	<path class="st1" d="M253.3,151.6l-5.1,1.5l-9.8-29l7.5-2.2L253.3,151.6z M258.2,163.2l-7.7,2.2l-2-6.8l7.7-2.2L258.2,163.2z"/>
	<path class="st1" d="M138.5,188.7c0.6,2.1,1.7,2.7,3.5,2.1c1.5-0.5,2.7-1.3,3.7-3l1.9,6.6c-1.3,1.2-2.9,2.1-5,2.7
		c-4.5,1.3-8.9-0.1-10.5-5.6l-4.8-16.6l-5.7,1.6l-1.7-5.8l5.7-1.6l-2.4-8.2l6.5-1.9l2.4,8.2l8-2.3l1.7,5.8l-8,2.3L138.5,188.7z"/>
	<path class="st1" d="M155.5,172.9l5.4,18.5l-6.5,1.9l-11.9-41.1l6.5-1.9l5.2,18l0.1,0c0.7-5.2,3.3-9,8.3-10.5
		c6.4-1.9,11.3,1.4,13.6,9.2l5.3,18.4l-6.5,1.9l-5.3-18.4c-1.2-4.2-3.8-5.6-7.3-4.6C159.1,165.3,156.5,168.4,155.5,172.9z"/>
	<path class="st1" d="M193.3,148.9c7.4-2.2,12.9,0.7,14.6,6.7l3.4,11.5c1.2,4,2.3,5.7,5.4,7.9l-7.7,2.2c-1.5-1.3-2.5-2.9-3.2-4.8
		l-0.6-2l-0.1,0c0.3,4.7-0.5,8.6-7,10.5c-6,1.7-11.5-0.5-13.1-6.1c-1.6-5.4,1.5-8.8,7.2-12l7.8-4.5c1-0.5,1.1-1.2,0.9-1.9
		c-0.5-1.8-2.7-2.8-5.8-1.9c-3.9,1.1-7.7,4.2-10.2,7.8l-2.1-7.1C185.7,152.3,189.4,150.1,193.3,148.9z M197.2,175
		c5.4-1.6,7.6-5.7,5.9-11.5l-0.8-2.7l-0.1,0c0.3,2-0.2,3-1.8,4l-5.4,3.3c-2.5,1.5-4,2.8-3.4,5C192.2,175.2,194.1,175.9,197.2,175z"
		/>
	<path class="st1" d="M228.3,162.7c0.6,2.1,1.7,2.7,3.5,2.1c1.5-0.5,2.7-1.3,3.7-3l1.9,6.6c-1.3,1.2-2.9,2.1-5,2.7
		c-4.5,1.3-8.9-0.1-10.5-5.6l-4.8-16.6l-5.7,1.6l-1.7-5.8l5.7-1.6l-2.4-8.2l6.5-1.9l2.4,8.2l8-2.3l1.7,5.8l-8,2.3L228.3,162.7z"/>
	<path class="st1" d="M74.5,197.9l3.7-6.7l-0.1-0.1c-3.7,4.1-7.9,5-12.7,2.4c-8.1-4.5-8.7-14.4-4.8-21.6c3.9-7,12.2-11.1,20.1-6.8
		c4.5,2.5,6.2,6.4,5.1,11.7L86,177l9.1-16.5l6,3.3l-20.6,37.4L74.5,197.9z M78.6,171c-4.2-2.3-9.1-0.7-11.9,4.3
		c-3.1,5.6-2,10.8,2.5,13.2c3.4,1.9,7.3,1.7,11.2-1.3l3.5-6.4C83.7,176.5,82.3,173.1,78.6,171z"/>
	<path class="st1" d="M93.7,190.7c4.2-7.6,13.3-11,22-6.2c8.5,4.7,10.9,14,6.5,21.9c-4.5,8.1-14.2,10.7-22,6.4
		C92,208.1,89.5,198.3,93.7,190.7z M99.8,194c-2.4,4.3-2.3,10.2,3.3,13.3c6,3.3,10.9-0.6,13-4.3c2.9-5.3,1.7-10.4-3.4-13.2
		C107.7,187,102.7,188.7,99.8,194z"/>
	<path class="st1" d="M53.9,222.6l-12.1-41.7l6.8-2l12.1,41.7L53.9,222.6z"/>
</g>
</svg>
