<?xml version="1.0" encoding="utf-8"?>
<!-- Generator: Adobe Illustrator 24.1.0, SVG Export Plug-In . SVG Version: 6.00 Build 0)  -->
<svg version="1.1" id="Ebene_1" xmlns="http://www.w3.org/2000/svg" xmlns:xlink="http://www.w3.org/1999/xlink" x="0px" y="0px"
	 viewBox="0 0 300 300" style="enable-background:new 0 0 300 300;" xml:space="preserve">
<style type="text/css">
	.st0{fill:#282828;stroke:#282828;stroke-width:4.4;stroke-miterlimit:10;}
	.st1{fill:#FFFFFF;}
	.st2{font-family:'G2TGR-Medium';}
	.st3{font-size:64px;}
	.st4{font-size:64.0066px;}
</style>
<path class="st0" d="M234.7,288c5.7,0,10.6-3,13.3-7.5c1.4-2.3,2.2-5,2.2-7.9c0-3.6-1.2-6.9-3.3-9.5c3.5-2.3,6.4-5.1,8.5-8.4
	c2.3-3.6,3.7-7.7,3.7-12c0-6.6-3.1-12.6-8.1-17.3c6.7-6.3,11.8-13.2,15-20.6c2.6-6,4-12.2,4-18.7c0-10.9-4-21.2-11-30.5
	c-6.5-8.5-15.7-16.1-26.8-22.5c-10.1-5.8-21.9-10.5-34.8-13.8c-14.5-3.8-30.5-5.8-47.2-5.8c-12.5,0-24.6,1.2-36,3.3
	c-11.8,2.2-22.9,5.6-32.8,9.8c-10.8,4.6-20.3,10.2-28.1,16.7c-5.8,4.8-10.6,10-14.4,15.6c-5.6,8.4-8.7,17.6-8.7,27.2
	c0,10.9,3.9,21.1,11,30.4c9.8,12.8,25.5,23.6,45.1,31.1c18.5,7.1,40.3,11.1,63.8,11.1c7.7,0,15.1-0.4,22.4-1.3
	c8.1-0.9,15.9-2.4,23.3-4.2c2.2,3.9,5.5,7.3,9.6,9.9s9.1,4.5,14.4,5.3c-0.2,0.8-0.5,7.4,2.5,12.7C224.4,284.9,228.1,288,234.7,288z"
	/>
<text transform="matrix(0.5925 -0.8056 0.8056 0.5925 222.291 252.7707)" class="st1 st2 st3">!</text>
<text transform="matrix(0.8597 0.5109 -0.5109 0.8597 126.5101 152.614)" class="st1 st2 st4">that</text>
<text transform="matrix(0.5623 -0.8269 0.8269 0.5623 112.1376 252.77)" class="st1 st2 st3">do</text>
<text transform="matrix(0.9613 0.2756 -0.2756 0.9613 55.4446 186.9543)" class="st1 st2 st3">I</text>
</svg>
