<?xml version="1.0" encoding="utf-8"?>
<!-- Generator: Adobe Illustrator 24.1.0, SVG Export Plug-In . SVG Version: 6.00 Build 0)  -->
<svg version="1.1" id="Ebene_1" xmlns="http://www.w3.org/2000/svg" xmlns:xlink="http://www.w3.org/1999/xlink" x="0px" y="0px"
	 viewBox="0 0 300 300" style="enable-background:new 0 0 300 300;" xml:space="preserve">
<style type="text/css">
	.st0{fill:#282828;stroke:#282828;stroke-width:4.4;stroke-miterlimit:10;}
	.st1{fill:#FFFFFF;}
</style>
<path class="st0" d="M259.6,279c-5.1-12.4-8.2-20.1-11-26.9c-2.8-6.8-11-26.9-11-26.9l11.4-1.4c6.5-0.8,12.1-4.4,15.9-9.6
	c3.8-5.2,5.8-12.2,5-19.1c-0.8-6.9-1.1-9.1-2.3-19.4c-1.2-10.3-1.7-14.6-2.3-19.4c-0.6-4.8-3.3-11.7-7.2-15.8
	c-3.9-4.1-9.4-6.8-14.8-7.1c-5.3-0.2-37.2-1.7-45.3-2.1c-8.1-0.4-40.8-1.9-48.8-2.2c-8-0.4-48.5-2.2-56.2-2.6s-32.2-1.4-37.9-1.7
	c-9.8-0.3-14,2.9-18.5,7.8c-4.5,4.9-6.9,11.9-6.6,19.4s1.5,33.6,1.7,38.1c0.2,4.6,1.3,30.8,1.7,38.1c0.4,7.4,3.8,14.4,8.5,18.7
	s11.4,6.6,17.6,5.6s32.6-5.2,38-6.1c5.3-0.8,35.9-5.7,40.1-6.4c4.2-0.7,17.9-2.8,23.3-3.7s14.2-2.3,19-3c4.8-0.8,27.1-4.3,35.7-5.7
	c4.5,5.2,18.3,21.3,22,25.6S251.5,269.6,259.6,279z"/>
<g id="text">
	<path class="st1" d="M236.8,196.5l-3.4,4l-24.2-18.8l5-6L236.8,196.5z M247.3,203.5l-5.2,6.2l-5.4-4.6l5.2-6.2L247.3,203.5z"/>
	<path class="st1" d="M150.4,226.1c1.7,1.4,2.9,1.3,4.1-0.2c1-1.2,1.5-2.6,1.4-4.6l5.3,4.4c-0.4,1.7-1.3,3.4-2.6,5
		c-3,3.6-7.5,4.8-11.8,1.1l-13.2-11.1l-3.8,4.5l-4.6-3.9l3.8-4.5l-6.5-5.5l4.4-5.2l6.5,5.5l5.4-6.3l4.6,3.9l-5.4,6.3L150.4,226.1z"
		/>
	<path class="st1" d="M155.8,203.5l14.7,12.5l-4.4,5.2l-32.6-27.6l4.4-5.2l14.3,12.1l0.1-0.1c-2.3-4.8-2.2-9.4,1.1-13.3
		c4.3-5.1,10.2-5.1,16.4,0.1l14.6,12.4l-4.4,5.2l-14.6-12.4c-3.3-2.8-6.3-2.6-8.6,0.2C154.5,195.2,154.1,199.3,155.8,203.5z"/>
	<path class="st1" d="M174,162.7c5-5.9,11.1-6.5,15.9-2.5l9.2,7.8c3.2,2.7,5,3.5,8.9,3.6l-5.2,6.2c-1.9-0.2-3.7-1.1-5.3-2.2
		l-1.6-1.4l-0.1,0.1c2.9,3.7,4.4,7.4-0.1,12.6c-4,4.8-9.9,5.9-14.3,2.2c-4.3-3.6-3.6-8.1-0.7-14l4-8c0.5-1,0.3-1.6-0.3-2.1
		c-1.5-1.2-3.8-0.9-5.9,1.6c-2.6,3.1-4.1,7.7-4.2,12.1l-5.6-4.8C169.6,169.7,171.4,165.8,174,162.7z M191.7,182.2
		c3.6-4.3,3.2-8.9-1.4-12.8l-2.1-1.8l-0.1,0.1c1.3,1.5,1.5,2.6,0.7,4.3l-2.7,5.7c-1.2,2.6-1.8,4.6-0.1,6
		C187.6,185.2,189.6,184.7,191.7,182.2z"/>
	<path class="st1" d="M210.8,154.8c1.7,1.4,2.9,1.3,4.1-0.2c1-1.2,1.5-2.6,1.4-4.6l5.3,4.4c-0.4,1.7-1.3,3.4-2.6,5
		c-3,3.6-7.5,4.8-11.8,1.1L194,149.5l-3.8,4.5l-4.6-3.9l3.8-4.5l-6.5-5.5l4.4-5.2l6.5,5.5l5.4-6.3l4.6,3.9l-5.4,6.3L210.8,154.8z"/>
	<path class="st1" d="M116.1,206.1l-5.8-4.9l-0.1,0.1c3.3,4.4,3.4,8.7-0.2,12.9c-6,7-15.8,5.7-22.1,0.4c-6.1-5.2-8.5-14.2-2.6-21.1
		c3.3-3.9,7.5-4.8,12.5-2.7l0.1-0.1l-14.4-12.2l4.4-5.2l32.6,27.6L116.1,206.1z M90.5,196.8c-3.1,3.7-2.5,8.8,1.9,12.5
		c4.9,4.1,10.2,4.1,13.5,0.2c2.5-3,3.1-6.9,1-11.2l-5.6-4.7C97,192.9,93.3,193.6,90.5,196.8z"/>
	<path class="st1" d="M112.8,185.9c-6.6-5.6-8.1-15.2-1.8-22.8c6.3-7.4,15.8-7.9,22.8-2c7.1,6,7.6,16,1.9,22.9
		C129.6,191.1,119.4,191.5,112.8,185.9z M117.3,180.6c3.7,3.2,9.5,4.3,13.7-0.6c4.4-5.3,1.6-10.8-1.7-13.6
		c-4.6-3.9-9.9-3.7-13.6,0.7C112.1,171.4,112.7,176.7,117.3,180.6z"/>
	<path class="st1" d="M77.5,173.2l-33.1-28l4.6-5.4l33.1,28L77.5,173.2z"/>
</g>
</svg>
