<?xml version="1.0" encoding="utf-8"?>
<!-- Generator: Adobe Illustrator 24.1.0, SVG Export Plug-In . SVG Version: 6.00 Build 0)  -->
<svg version="1.1" id="Ebene_1" xmlns="http://www.w3.org/2000/svg" xmlns:xlink="http://www.w3.org/1999/xlink" x="0px" y="0px"
	 viewBox="0 0 300 300" style="enable-background:new 0 0 300 300;" xml:space="preserve">
<style type="text/css">
	.st0{fill:#282828;stroke:#282828;stroke-width:4.4;stroke-miterlimit:10;}
	.st1{fill:#FFFFFF;}
</style>
<path class="st0" d="M234.7,288c5.7,0,10.6-3,13.3-7.5c1.4-2.3,2.2-5,2.2-7.9c0-3.6-1.2-6.9-3.3-9.5c3.5-2.3,6.4-5.1,8.5-8.4
	c2.3-3.6,3.7-7.7,3.7-12c0-6.6-3.1-12.6-8.1-17.3c6.7-6.3,11.8-13.2,15-20.6c2.6-6,4-12.2,4-18.7c0-10.9-4-21.2-11-30.5
	c-6.5-8.5-15.7-16.1-26.8-22.5c-10.1-5.8-21.9-10.5-34.8-13.8c-14.5-3.8-30.5-5.8-47.2-5.8c-12.5,0-24.6,1.2-36,3.3
	c-11.8,2.2-22.9,5.6-32.8,9.8c-10.8,4.6-20.3,10.2-28.1,16.7c-5.8,4.8-10.6,10-14.4,15.6c-5.6,8.4-8.7,17.6-8.7,27.2
	c0,10.9,3.9,21.1,11,30.4c9.8,12.8,25.5,23.6,45.1,31.1c18.5,7.1,40.3,11.1,63.8,11.1c7.7,0,15.1-0.4,22.4-1.3
	c8.1-0.9,15.9-2.4,23.3-4.2c2.2,3.9,5.5,7.3,9.6,9.9s9.1,4.5,14.4,5.3c-0.2,0.8-0.5,7.4,2.5,12.7C224.4,284.9,228.1,288,234.7,288z"
	/>
<g id="text">
	<path class="st1" d="M213.2,236.6l-3.1,4.2l-25.4-17.1l4.6-6.3L213.2,236.6z M224.2,242.8l-4.8,6.5l-5.7-4.2l4.8-6.5L224.2,242.8z"
		/>
	<path class="st1" d="M140.6,153.1c-1.1,1.9-0.8,3.1,0.8,4c1.4,0.8,2.8,1.1,4.7,0.7l-3.5,5.9c-1.7-0.1-3.6-0.7-5.4-1.8
		c-4-2.4-6-6.6-3.1-11.5l8.8-14.8l-5.1-3l3.1-5.2l5.1,3l4.4-7.4l5.9,3.5l-4.4,7.4l7.1,4.2l-3.1,5.2l-7.1-4.2L140.6,153.1z"/>
	<path class="st1" d="M163.8,154.7l-9.9,16.6l-5.9-3.5L170,131l5.9,3.5l-9.6,16.1l0.1,0.1c4.3-3,8.9-3.7,13.3-1.1
		c5.7,3.4,6.7,9.2,2.6,16.2l-9.8,16.5l-5.9-3.5l9.8-16.5c2.2-3.7,1.5-6.6-1.7-8.5C171.8,152,167.7,152.3,163.8,154.7z"/>
	<path class="st1" d="M207.1,165.9c6.7,4,8.3,9.9,5.1,15.3l-6.1,10.3c-2.2,3.6-2.6,5.5-2.1,9.4l-6.9-4.1c-0.1-1.9,0.4-3.9,1.3-5.6
		l1.1-1.8l-0.1-0.1c-3.2,3.4-6.6,5.5-12.5,2c-5.4-3.2-7.5-8.8-4.5-13.8c2.9-4.8,7.4-4.9,13.7-3l8.6,2.7c1.1,0.4,1.6,0,2-0.6
		c1-1.7,0.2-3.9-2.5-5.5c-3.5-2.1-8.3-2.8-12.7-2.1l3.8-6.3C199.5,162.6,203.6,163.8,207.1,165.9z M190.7,186.5
		c4.9,2.9,9.3,1.7,12.4-3.5l1.4-2.4l-0.1-0.1c-1.3,1.5-2.3,1.9-4.1,1.4l-6.1-1.8c-2.8-0.8-4.8-1-6,0.9
		C187.2,183,188,184.9,190.7,186.5z"/>
	<path class="st1" d="M221,200.8c-1.1,1.9-0.8,3.1,0.8,4c1.4,0.8,2.8,1.1,4.7,0.6l-3.5,5.9c-1.7-0.1-3.6-0.7-5.4-1.8
		c-4.1-2.4-6-6.6-3.1-11.5l8.8-14.8l-5.1-3l3.1-5.2l5.1,3l4.4-7.4l5.9,3.5l-4.4,7.4l7.1,4.2l-3.1,5.2l-7.1-4.2L221,200.8z"/>
	<path class="st1" d="M126.9,228.2l-6.3-4.3l-0.1,0.1c3.8,4.1,4.3,8.3,1.2,12.9c-5.2,7.6-15.1,7.3-21.9,2.7
		c-6.6-4.5-9.9-13.2-4.8-20.7c2.9-4.3,7-5.5,12.2-4l0.1-0.1l-15.6-10.6l3.8-5.6l35.3,24L126.9,228.2z M100.4,221.7
		c-2.7,4-1.5,9,3.2,12.2c5.3,3.6,10.6,3,13.4-1.2c2.2-3.2,2.4-7.1-0.2-11.2l-6-4.1C106.4,217.1,102.8,218.1,100.4,221.7z"/>
	<path class="st1" d="M121.4,208.4c-7.2-4.9-9.7-14.3-4.1-22.5c5.5-8,14.9-9.5,22.4-4.4c7.6,5.2,9.3,15.1,4.2,22.5
		C138.7,211.8,128.6,213.3,121.4,208.4z M125.3,202.7c4.1,2.8,9.9,3.2,13.5-2c3.9-5.7,0.5-10.9-3.1-13.3c-5-3.4-10.2-2.7-13.4,2.1
		C119.2,194.1,120.4,199.3,125.3,202.7z"/>
	<path class="st1" d="M61.9,188.3l12-41.7l6.9,2l-12,41.7L61.9,188.3z"/>
</g>
</svg>
