<?xml version="1.0" encoding="utf-8"?>
<!-- Generator: Adobe Illustrator 24.1.0, SVG Export Plug-In . SVG Version: 6.00 Build 0)  -->
<svg version="1.1" id="Ebene_1" xmlns="http://www.w3.org/2000/svg" xmlns:xlink="http://www.w3.org/1999/xlink" x="0px" y="0px"
	 viewBox="0 0 300 300" style="enable-background:new 0 0 300 300;" xml:space="preserve">
<style type="text/css">
	.st0{fill:#282828;stroke:#282828;stroke-width:4.4;stroke-miterlimit:10;}
	.st1{fill:#FFFFFF;}
</style>
<path class="st0" d="M246.2,280l-34.4-24.7l7.8-19.2l-9.5-11.8l48,15l-47.5-48.8L270,173l-59-20.3l41-49.5c-4.1,1.4-66.8,22-66.8,22
	l2.3-64.4L144.7,114l-35.6-30.2l-5.9,40.8L30,101.3l48.5,52.4L30,172.1l50.5,16.4l-48.8,51.3l74.2-23l14.9,39.6L145,228l41.9,37.3
	c0,0,0.3-20.4,0.7-35.2c7.4,6.2,14.9,12.4,14.9,12.4l-6.9,16.5L246.2,280z"/>
<g id="text">
	<path class="st1" d="M210.5,207l-5.2,1l-6.9-29.8l7.7-1.4L210.5,207z M214.2,219.1l-7.9,1.5l-1.3-7l7.9-1.5L214.2,219.1z"/>
	<path class="st1" d="M91,200.6c-0.5,2.2,0.2,3.2,2,3.6c1.6,0.4,3,0.2,4.7-0.8l-1.5,6.7c-1.7,0.4-3.6,0.4-5.7,0
		c-4.6-1.1-7.7-4.4-6.4-10l3.9-16.8l-5.7-1.3l1.3-5.9l5.7,1.3l1.9-8.3l6.6,1.5l-1.9,8.3l8.1,1.9l-1.3,5.9l-8.1-1.9L91,200.6z"/>
	<path class="st1" d="M113.6,195l-4.3,18.8l-6.6-1.5l9.6-41.7l6.6,1.5l-4.2,18.3l0.1,0c3.2-4.2,7.3-6.3,12.4-5.1
		c6.5,1.5,9.2,6.7,7.4,14.6l-4.3,18.7l-6.6-1.5l4.3-18.7c1-4.2-0.6-6.8-4.2-7.6C120.4,190.1,116.6,191.6,113.6,195z"/>
	<path class="st1" d="M158.3,192.5c7.6,1.7,10.9,6.9,9.5,13l-2.7,11.7c-0.9,4.1-0.8,6.1,0.9,9.5l-7.9-1.8c-0.7-1.8-0.8-3.8-0.5-5.7
		l0.5-2.1l-0.1,0c-2,4.2-4.6,7.3-11.2,5.8c-6.1-1.4-9.8-6.1-8.5-11.7c1.3-5.5,5.6-6.9,12.1-7l9-0.1c1.1,0,1.6-0.5,1.7-1.2
		c0.4-1.9-1-3.8-4.1-4.5c-3.9-0.9-8.8-0.1-12.7,1.9l1.7-7.2C150,191.7,154.3,191.6,158.3,192.5z M149,217.1
		c5.5,1.3,9.4-1.3,10.7-7.1l0.6-2.7l-0.1,0c-0.7,1.9-1.6,2.5-3.5,2.6l-6.3,0.2c-2.9,0.1-4.9,0.5-5.4,2.7
		C144.5,214.8,145.8,216.4,149,217.1z"/>
	<path class="st1" d="M182.1,221.5c-0.5,2.2,0.2,3.2,2,3.6c1.6,0.4,3,0.2,4.7-0.8l-1.5,6.7c-1.7,0.4-3.6,0.4-5.7,0
		c-4.6-1.1-7.7-4.4-6.4-10l3.9-16.8l-5.7-1.3l1.3-5.9l5.7,1.3l1.9-8.3l6.6,1.5l-1.9,8.3l8.1,1.9l-1.3,5.9l-8.1-1.9L182.1,221.5z"/>
	<path class="st1" d="M167.8,174.2l-3-7l-0.1,0c1,5.4-0.8,9.3-5.9,11.5c-8.5,3.7-16.7-1.9-20-9.4c-3.2-7.3-1.3-16.5,7-20.1
		c4.7-2,8.9-0.9,12.4,3.1l0.1,0l-7.5-17.3l6.3-2.7l17,39.2L167.8,174.2z M149,154.5c-4.4,1.9-6.1,6.8-3.8,12c2.5,5.9,7.3,8.2,12,6.2
		c3.6-1.6,5.8-4.8,5.8-9.6l-2.9-6.7C156.5,153.8,152.9,152.8,149,154.5z"/>
	<path class="st1" d="M173.8,154.6c-3.5-8-0.5-17.3,8.5-21.2c8.9-3.9,17.7,0,21.3,8.3c3.7,8.5-0.3,17.8-8.5,21.3
		C186.6,166.7,177.3,162.5,173.8,154.6z M180.2,151.8c1.9,4.5,6.7,8.1,12.5,5.5c6.3-2.7,6.2-9,4.5-12.9c-2.4-5.5-7.2-7.7-12.5-5.4
		C179.6,141.3,177.8,146.3,180.2,151.8z"/>
	<path class="st1" d="M112.7,157.5l0.8-43.4l7.1,0.1l-0.8,43.4L112.7,157.5z"/>
</g>
</svg>
