<?xml version="1.0" encoding="utf-8"?>
<!-- Generator: Adobe Illustrator 24.1.0, SVG Export Plug-In . SVG Version: 6.00 Build 0)  -->
<svg version="1.1" id="Ebene_1" xmlns="http://www.w3.org/2000/svg" xmlns:xlink="http://www.w3.org/1999/xlink" x="0px" y="0px"
	 viewBox="0 0 300 300" style="enable-background:new 0 0 300 300;" xml:space="preserve">
<style type="text/css">
	.st0{fill:#282828;stroke:#282828;stroke-width:4.4;stroke-miterlimit:10;}
	.st1{fill:#FFFFFF;}
</style>
<path class="st0" d="M236.4,287.3c2-0.5,3.9-1.3,5.7-2.4c3.9-2.4,6.5-5.7,7.6-9.3c1.2-4,0.6-8.2-2.2-11.7c-1.5-1.8-3.4-3.2-5.6-4.2
	c3.4-3.2,5.5-7.1,6.2-11c0.7-3.7,0.1-7.5-1.9-10.9c10.3-4.4,18.8-11.7,22.4-20.7c3.9-9.7,2.1-21.4-9.1-33.2
	c7.5-12.2,5.6-24.7-2.1-34.2c-8.8-10.9-25.1-17.8-43.4-15.9c-3.5-13-19.9-23.9-38.7-25.5c-14-1.2-29.4,2.7-41.8,14.6
	c-14.8-7.2-31.8-6.4-45.1-0.8C73.5,128.3,63,140.5,64.8,154c-18.7,2.5-30.6,14.6-33.6,27.9c-3.6,16.1,5.8,34,32.2,38.9
	c-6.6,19.1,8.4,33.3,27.1,39.2c17.9,5.6,39.1,3.5,47.9-9.1c7.2,7.1,20.9,11.4,35.1,10.5c9.9-0.6,20-3.8,28.4-10.1
	c0.3,3,1.4,5.9,3.5,8.4c2.9,3.6,7.1,5.9,11.8,6.9c-1.6,2.4-2.5,5.1-2.6,7.7c-0.1,2.8,0.8,5.6,2.8,8c2.6,3.2,6.7,5.2,11.1,5.7
	C231.1,288.2,233.8,288,236.4,287.3z"/>
<g id="text">
	<path class="st1" d="M229.3,224.9l-8-0.9l0.8-7.1l8,0.9L229.3,224.9z M229.3,212.3l-5.2-0.6l2.2-30.5l7.8,0.9L229.3,212.3z"/>
	<path class="st1" d="M95.6,233.9c0.3,2.2,1.3,2.9,3.2,2.6c1.6-0.2,2.9-0.9,4.1-2.4l0.9,6.8c-1.4,1-3.2,1.7-5.3,1.9
		c-4.7,0.6-8.8-1.5-9.5-7.1l-2.2-17.1l-5.8,0.8l-0.8-6l5.8-0.8l-1.1-8.5l6.8-0.9l1.1,8.5l8.2-1.1l0.8,6l-8.2,1.1L95.6,233.9z"/>
	<path class="st1" d="M114.8,220.9l2.5,19.1l-6.8,0.9l-5.5-42.4l6.8-0.9l2.4,18.6l0.1,0c1.5-5.1,4.7-8.4,9.8-9.1
		c6.6-0.9,11,3.1,12,11.1l2.5,19l-6.8,0.9l-2.5-19c-0.6-4.3-2.9-6.1-6.6-5.6C119.5,213.9,116.4,216.6,114.8,220.9z"/>
	<path class="st1" d="M155.8,202.9c7.7-1,12.6,2.7,13.4,8.9l1.6,11.9c0.5,4.2,1.4,5.9,4.1,8.6l-8,1c-1.3-1.5-2.1-3.3-2.4-5.2
		l-0.3-2.1l-0.1,0c-0.4,4.7-1.8,8.4-8.5,9.3c-6.2,0.8-11.3-2.3-12.1-8.1c-0.7-5.6,2.8-8.4,8.9-10.8l8.4-3.2c1.1-0.4,1.3-1,1.2-1.7
		c-0.2-1.9-2.2-3.2-5.4-2.8c-4,0.5-8.2,3-11.3,6.2l-1-7.3C147.8,205.1,151.7,203.5,155.8,202.9z M155.7,229.3
		c5.6-0.7,8.4-4.5,7.6-10.4l-0.4-2.8l-0.1,0c0,2-0.6,2.9-2.4,3.6l-5.9,2.4c-2.7,1.1-4.4,2.2-4.1,4.4
		C150.7,228.7,152.5,229.7,155.7,229.3z"/>
	<path class="st1" d="M188.3,221.8c0.3,2.2,1.3,2.9,3.2,2.7c1.6-0.2,2.9-0.9,4.1-2.4l0.9,6.8c-1.4,1-3.2,1.7-5.3,1.9
		c-4.7,0.6-8.8-1.5-9.5-7.1l-2.2-17.1l-5.8,0.8l-0.8-6l5.8-0.8l-1.1-8.5l6.8-0.9l1.1,8.5l8.2-1.1l0.8,6l-8.2,1.1L188.3,221.8z"/>
	<path class="st1" d="M157.7,174.6l2-7.4l-0.1,0c-2.6,4.9-6.5,6.7-11.8,5.2c-8.9-2.5-11.8-11.9-9.6-19.9c2.1-7.7,9.3-13.6,18-11.2
		c5,1.4,7.5,4.8,7.7,10.2l0.1,0l5-18.2l6.6,1.8l-11.3,41.2L157.7,174.6z M155.4,147.5c-4.7-1.3-9,1.4-10.5,6.9
		c-1.7,6.2,0.6,11,5.5,12.3c3.8,1,7.5,0,10.6-3.8l1.9-7.1C161.6,151.7,159.5,148.6,155.4,147.5z"/>
	<path class="st1" d="M174.7,163.1c2.3-8.4,10.4-13.8,19.9-11.2c9.4,2.6,13.8,11.1,11.4,19.8c-2.5,8.9-11.3,13.7-20,11.3
		C177,180.5,172.4,171.5,174.7,163.1z M181.4,164.9c-1.3,4.7,0.1,10.5,6.3,12.2c6.6,1.8,10.5-3.1,11.6-7.2c1.6-5.8-0.8-10.5-6.3-12
		C187.5,156.3,183,159.1,181.4,164.9z"/>
	<path class="st1" d="M102.2,181.8l-7.6-42.7l7-1.2l7.6,42.7L102.2,181.8z"/>
</g>
</svg>
