<?xml version="1.0" encoding="utf-8"?>
<!-- Generator: Adobe Illustrator 24.1.0, SVG Export Plug-In . SVG Version: 6.00 Build 0)  -->
<svg version="1.1" id="Ebene_1" xmlns="http://www.w3.org/2000/svg" xmlns:xlink="http://www.w3.org/1999/xlink" x="0px" y="0px"
	 viewBox="0 0 300 300" style="enable-background:new 0 0 300 300;" xml:space="preserve">
<style type="text/css">
	.st0{fill:#282828;stroke:#282828;stroke-width:4.4;stroke-miterlimit:10;}
	.st1{fill:#FFFFFF;}
	.st2{font-family:'G2TGR-Medium';}
	.st3{font-size:63.9977px;}
	.st4{font-size:64px;}
	.st5{font-size:63.9972px;}
</style>
<path class="st0" d="M266.1,279l-8.5-8.7l-8.5-8.7l9.7-6.8l-11.5-13.6c4.9-3.6,11-8.6,15.4-15c5.8-8.5,9.6-20.9,8.6-29.2
	c-0.9-7.1-7.1-17.7-17.7-24.7c2.7-10,3.1-18.6,1.7-25.7c-2.6-13.5-11.2-22.1-21.6-26.8c-16-7.1-36.3-4.9-45.5,3.9
	c-11.7-11.9-29.2-14-44.5-9.6s-28.5,15.3-31.4,29.2c-15.3-5.1-29.2-5.3-41-2.2c-14.9,3.8-26.5,12.8-33.7,23.5
	c-6,8.9-8.8,19-7.9,28.6c1.1,11.1,7.3,21.4,19.9,27.9c-3.8,8.3-1,21.1,13.8,28.3c9.1,4.4,22.6,6.6,41.9,4.4
	c12.2-1.4,26.7-4.6,43.7-10.2c6.7,5.4,15.4,8.4,24.6,9.9c8.2,1.3,16.9,1.4,25.1,0.9c17.6-1.1,33.4-5.2,38.6-7l9.1,6.8l-8.9,6.9
	l14.4,9L266.1,279z"/>
<text transform="matrix(0.9997 -2.300082e-02 2.300082e-02 0.9997 241.9852 226.7377)" class="st1 st2 st3">!</text>
<text transform="matrix(0.8199 0.5725 -0.5725 0.8199 117.3866 162.0582)" class="st1 st2 st4">that</text>
<text transform="matrix(0.9604 0.2786 -0.2786 0.9604 76.3063 215.157)" class="st1 st2 st4">do</text>
<text transform="matrix(0.9924 -0.1227 0.1227 0.9924 53.7421 223.7604)" class="st1 st2 st5">I</text>
</svg>
