<?xml version="1.0" encoding="utf-8"?>
<!-- Generator: Adobe Illustrator 24.1.0, SVG Export Plug-In . SVG Version: 6.00 Build 0)  -->
<svg version="1.1" id="Ebene_1" xmlns="http://www.w3.org/2000/svg" xmlns:xlink="http://www.w3.org/1999/xlink" x="0px" y="0px"
	 viewBox="0 0 300 300" style="enable-background:new 0 0 300 300;" xml:space="preserve">
<style type="text/css">
	.st0{fill:#282828;stroke:#282828;stroke-width:4.4;stroke-miterlimit:10;}
	.st1{fill:#FFFFFF;}
	.st2{font-family:'G2TGR-Medium';}
	.st3{font-size:64px;}
</style>
<path class="st0" d="M261.9,279l-10.6-15.7l-10.6-15.7l2.9-11.9l1-4c2.6,0.1,11.9,1.1,14,1.4c2.1,0.3,9.6,1.7,11.2,2.1
	c-1.9-7.3-3-17.1-3.7-28s-0.8-22.9-0.6-34.7c0.2-11.8,0.8-23.4,1.5-33.4s1.8-18.5,2.8-24c-8.9,2.5-26.3,3.9-47.9,4.5
	s-47.3,0.3-72.9-0.8s-51.2-3-72.4-5.6s-38.1-5.9-46.4-9.8c2.9,8,4.8,18.7,5.9,30.4s1.3,24.7,1,37.2s-1.2,24.7-2.4,35.1
	s-2.8,18.9-4.5,24c10.6-1.8,23.6-3.1,38.2-3.9c14.6-0.8,30.9-1.2,48-1.1s35.1,0.6,53.2,1.6c18.1,0.9,36.2,2.3,53.6,4v4.2v12.8
	l19.4,15.6L261.9,279z"/>
<text transform="matrix(0.9539 -0.3002 0.3002 0.9539 248.4548 166.1687)" class="st1 st2 st3">!</text>
<text transform="matrix(0.9539 -0.3002 0.3002 0.9539 131.179 202.9502)" class="st1 st2 st3">that</text>
<text transform="matrix(0.8868 0.4622 -0.4622 0.8868 50.5873 191.8629)" class="st1 st2 st3">do</text>
<text transform="matrix(0.9539 -0.3002 0.3002 0.9539 46.7662 227.1516)" class="st1 st2 st3">I</text>
</svg>
