<?xml version="1.0" encoding="utf-8"?>
<!-- Generator: Adobe Illustrator 24.1.0, SVG Export Plug-In . SVG Version: 6.00 Build 0)  -->
<svg version="1.1" id="Ebene_1" xmlns="http://www.w3.org/2000/svg" xmlns:xlink="http://www.w3.org/1999/xlink" x="0px" y="0px"
	 viewBox="0 0 300 300" style="enable-background:new 0 0 300 300;" xml:space="preserve">
<style type="text/css">
	.st0{fill:#282828;stroke:#282828;stroke-width:4.4;stroke-miterlimit:10;}
	.st1{fill:#FFFFFF;}
</style>
<path class="st0" d="M243.6,285l-2.4-11.4l-4.9-22.7l-2.4-11.4c5.6-3.5,10.6-7.4,15.1-11.5c4.4-4.1,8.2-8.6,11.4-13.3
	c3.1-4.7,5.5-9.6,7.2-14.7c1.6-5.1,2.5-10.4,2.5-15.8c0-10.7-3.4-20.8-9.4-30.1s-14.8-17.6-25.7-24.6c-10.9-7-23.8-12.7-38.1-16.6
	c-14.3-3.9-30.1-6.1-46.7-6.1s-32.3,2.2-46.7,6.1s-27.3,9.6-38.2,16.6c-10.9,7-19.7,15.3-25.8,24.6c-6.1,9.2-9.5,19.4-9.5,30.1
	s3.4,20.9,9.5,30.1s14.9,17.6,25.8,24.6s23.8,12.7,38.2,16.6c14.4,3.9,30.1,6.1,46.7,6.1c4.4,0,8.7-0.1,12.9-0.5s8.4-0.7,12.5-1.3
	c4.1-0.6,8.1-1.3,12.1-2.1c3.9-0.8,7.8-1.8,11.5-2.9l11.1,7.6l22.2,15.1L243.6,285z"/>
<g id="text">
	<path class="st1" d="M204,230.2l-5.6-5.8l5.1-5l5.6,5.8L204,230.2z M211.9,220.4l-3.7-3.8l21-22.2l5.4,5.6L211.9,220.4z"/>
	<path class="st1" d="M66.7,205.9c-0.8,2.1-0.3,3.1,1.5,3.8c1.5,0.6,3,0.6,4.8-0.1l-2.5,6.4c-1.7,0.2-3.6-0.1-5.6-0.8
		c-4.4-1.7-7-5.5-4.9-10.8l6.2-16.1l-5.5-2.1l2.2-5.6l5.5,2.1l3.1-8l6.4,2.5l-3.1,8l7.7,3l-2.2,5.6l-7.7-3L66.7,205.9z"/>
	<path class="st1" d="M89.9,203.7l-7,18l-6.4-2.5L92,179.3l6.4,2.5l-6.8,17.5l0.1,0c3.8-3.7,8.1-5.2,13-3.3
		c6.2,2.4,8.2,7.9,5.2,15.5l-6.9,17.9l-6.4-2.5l6.9-17.9c1.6-4,0.4-6.8-3.1-8.1C97.3,199.7,93.4,200.7,89.9,203.7z"/>
	<path class="st1" d="M134.4,207.5c7.2,2.8,9.8,8.4,7.5,14.2l-4.3,11.2c-1.5,3.9-1.6,5.9-0.5,9.6l-7.5-2.9c-0.4-1.9-0.2-3.9,0.3-5.7
		l0.8-2l-0.1,0c-2.6,3.9-5.6,6.5-11.9,4.1c-5.8-2.3-8.8-7.4-6.7-12.8c2-5.3,6.5-6.1,13-5.2l8.9,1.2c1.1,0.2,1.6-0.2,1.9-0.9
		c0.7-1.8-0.4-3.9-3.4-5c-3.8-1.5-8.7-1.4-12.8,0l2.7-6.9C126.4,205.6,130.6,206.1,134.4,207.5z M121.7,230.6
		c5.3,2,9.5,0.1,11.6-5.5l1-2.6l-0.1,0c-1,1.7-1.9,2.2-3.8,2l-6.3-0.7c-2.9-0.3-4.9-0.2-5.7,1.9
		C117.6,227.7,118.7,229.4,121.7,230.6z"/>
	<path class="st1" d="M153.9,239.7c-0.8,2.1-0.3,3.1,1.5,3.8c1.5,0.6,3,0.6,4.8-0.1l-2.5,6.4c-1.7,0.2-3.6-0.1-5.6-0.8
		c-4.4-1.7-7-5.5-4.9-10.8l6.2-16.1l-5.5-2.1l2.2-5.6l5.5,2.1l3.1-8l6.4,2.5l-3.1,8l7.7,3l-2.2,5.6l-7.7-3L153.9,239.7z"/>
	<path class="st1" d="M184,178.6l-1.9-7.4l-0.1,0c0.2,5.5-2.2,9.1-7.6,10.5c-8.9,2.4-16.2-4.4-18.3-12.4c-2-7.7,1.2-16.5,9.9-18.8
		c5-1.3,8.9,0.4,11.8,5l0.1,0l-4.8-18.2l6.6-1.7l10.9,41.3L184,178.6z M168.4,156.3c-4.7,1.2-7.1,5.8-5.6,11.3
		c1.6,6.2,6,9.2,10.9,7.9c3.8-1,6.5-3.8,7.2-8.6l-1.9-7.1C175.9,156.8,172.6,155.2,168.4,156.3z"/>
	<path class="st1" d="M193,160.1c-2.2-8.4,2.1-17.2,11.6-19.7c9.4-2.5,17.5,2.6,19.8,11.4c2.4,8.9-3,17.5-11.6,19.8
		C203.7,174,195.2,168.5,193,160.1z M199.7,158.3c1.2,4.7,5.4,9,11.6,7.3c6.7-1.8,7.5-7.9,6.4-12.1c-1.5-5.8-5.9-8.7-11.5-7.2
		C200.6,147.8,198.1,152.5,199.7,158.3z"/>
	<path class="st1" d="M113.3,167.3l-9.9-42.3l6.9-1.6l9.9,42.3L113.3,167.3z"/>
</g>
</svg>
