<?xml version="1.0" encoding="utf-8"?>
<!-- Generator: Adobe Illustrator 24.1.0, SVG Export Plug-In . SVG Version: 6.00 Build 0)  -->
<svg version="1.1" id="Ebene_1" xmlns="http://www.w3.org/2000/svg" xmlns:xlink="http://www.w3.org/1999/xlink" x="0px" y="0px"
	 viewBox="0 0 300 300" style="enable-background:new 0 0 300 300;" xml:space="preserve">
<style type="text/css">
	.st0{fill:#282828;stroke:#282828;stroke-width:4.4;stroke-miterlimit:10;}
	.st1{fill:#FFFFFF;}
	.st2{font-family:'G2TGR-Medium';}
	.st3{font-size:64px;}
	.st4{font-size:64.0051px;}
</style>
<path class="st0" d="M246.2,280l-34.4-24.7l7.8-19.2l-9.5-11.8l48,15l-47.5-48.8L270,173l-59-20.3l41-49.5c-4.1,1.4-66.8,22-66.8,22
	l2.3-64.4L144.7,114l-35.6-30.2l-5.9,40.8L30,101.3l48.5,52.4L30,172.1l50.5,16.4l-48.8,51.3l74.2-23l14.9,39.6L145,228l41.9,37.3
	c0,0,0.3-20.4,0.7-35.2c7.4,6.2,14.9,12.4,14.9,12.4l-6.9,16.5L246.2,280z"/>
<text transform="matrix(0.9831 -0.183 0.183 0.9831 198.4286 219.698)" class="st1 st2 st3">!</text>
<text transform="matrix(0.9492 0.3148 -0.3148 0.9492 70.971 198.1809)" class="st1 st2 st4">that</text>
<text transform="matrix(0.9175 -0.3978 0.3978 0.9175 142.2034 185.0453)" class="st1 st2 st3">do</text>
<text transform="matrix(0.9833 0.1821 -0.1821 0.9833 103.3955 152.371)" class="st1 st2 st3">I</text>
</svg>
