<?xml version="1.0" encoding="utf-8"?>
<!-- Generator: Adobe Illustrator 24.1.0, SVG Export Plug-In . SVG Version: 6.00 Build 0)  -->
<svg version="1.1" id="Ebene_1" xmlns="http://www.w3.org/2000/svg" xmlns:xlink="http://www.w3.org/1999/xlink" x="0px" y="0px"
	 viewBox="0 0 300 300" style="enable-background:new 0 0 300 300;" xml:space="preserve">
<style type="text/css">
	.st0{fill:#282828;stroke:#282828;stroke-width:4.4;stroke-miterlimit:18;}
	.st1{fill:#FFFFFF;}
</style>
<path class="st0" d="M252.9,263.9c-7.6-8.6-15.1-18.2-20.9-27.7c-4.1-6.8-11.8-18.4-11.8-30.1c0-10.3,6.1-16.1,11.1-19.5
	c7.6-5.3,20-8.6,38.7-9.1c-33.6-5.8-49.2-11.6-51.6-19.8c-2.5-8.6,9.6-19.9,30.9-37c-30.1,17-45.1,22.9-50.3,17
	c-5.7-6.5,0.4-27.3,11.4-63.2c-19.6,34.4-32.2,48.1-43.2,46.7c-11.6-1.4-21.3-19.6-35.4-47.8c2.5,38.6,1,57.7-8.1,61.1
	c-10.2,3.8-29.9-12.1-64-42.2c25,32.6,35.9,50.3,30,57.9c-5.3,7-24.4,5.7-59.1-0.1c30.3,11.2,50.9,17.9,52,26.6
	c1,7.9-14.1,17.4-52.7,33.2c42.2-8,64.8-14.7,73-6.6c6.4,6.3,3.9,21.6-4.9,52.2c12.6-21.3,30.9-33.4,46.4-30.7
	c11.3,1.9,21.1,11.6,26.2,31c1.6-8.3,3.9-14.6,6.7-19.1c3.2-5,7-7.9,11.3-9.2c3.6-1.1,7.6-0.9,11.8,0.1c3.8,0.9,7.7,2.6,11.7,4.7
	c5.5,2.9,11,6.8,16.5,10.9C237.4,250,245.8,257.7,252.9,263.9z"/>
<g id="text">
	<path class="st1" d="M169,230.2l-4.6-6.6l5.9-4.1l4.6,6.6L169,230.2z M178.5,221.9l-3-4.3l24.4-18.5l4.4,6.4L178.5,221.9z"/>
	<path class="st1" d="M121.4,211.1c0.7,2.1,1.8,2.6,3.6,2c1.5-0.5,2.7-1.4,3.6-3.1l2.1,6.5c-1.2,1.2-2.9,2.2-4.9,2.9
		c-4.5,1.5-8.9,0.2-10.6-5.3l-5.3-16.4l-5.6,1.8l-1.9-5.7l5.6-1.8l-2.6-8.1l6.5-2.1l2.6,8.1l7.9-2.6l1.9,5.7l-7.9,2.6L121.4,211.1z"
		/>
	<path class="st1" d="M137.9,194.8l6,18.3l-6.5,2.1l-13.2-40.7l6.5-2.1l5.8,17.9l0.1,0c0.6-5.3,3-9.1,8-10.7
		c6.3-2.1,11.3,1,13.9,8.7l5.9,18.2l-6.5,2.1l-5.9-18.2c-1.3-4.1-4-5.5-7.5-4.3C141.2,187,138.8,190.3,137.9,194.8z"/>
	<path class="st1" d="M174.9,169.6c7.4-2.4,12.9,0.3,14.8,6.3l3.7,11.4c1.3,4,2.5,5.6,5.7,7.7l-7.7,2.5c-1.5-1.2-2.6-2.9-3.3-4.7
		l-0.7-2l-0.1,0c0.5,4.7-0.2,8.6-6.7,10.7c-6,1.9-11.5-0.2-13.3-5.7c-1.7-5.4,1.2-8.8,6.8-12.2l7.7-4.7c1-0.6,1.1-1.2,0.9-1.9
		c-0.6-1.8-2.8-2.7-5.8-1.7c-3.8,1.2-7.6,4.4-9.9,8.1l-2.3-7C167.4,173.2,171.1,170.9,174.9,169.6z M179.7,195.5
		c5.4-1.7,7.4-5.9,5.5-11.6l-0.9-2.7l-0.1,0c0.3,2-0.1,3-1.7,4l-5.3,3.4c-2.4,1.6-3.9,3-3.2,5.1
		C174.6,195.9,176.6,196.5,179.7,195.5z"/>
	<path class="st1" d="M210.3,182.2c0.7,2.1,1.8,2.6,3.6,2c1.5-0.5,2.7-1.4,3.6-3.1l2.1,6.5c-1.2,1.2-2.9,2.2-4.9,2.9
		c-4.5,1.5-8.9,0.2-10.6-5.3l-5.3-16.4l-5.6,1.8l-1.9-5.7l5.6-1.8l-2.6-8.1l6.5-2.1l2.6,8.1l7.9-2.6l1.9,5.7l-7.9,2.6L210.3,182.2z"
		/>
	<path class="st1" d="M150.9,164.6l-1.4-7.5l-0.1,0c-0.3,5.5-2.9,8.8-8.4,9.8c-9.1,1.6-15.8-5.6-17.3-13.8
		c-1.4-7.9,2.5-16.3,11.4-17.9c5.1-0.9,8.8,1.1,11.4,5.9l0.1,0l-3.3-18.5l6.7-1.2l7.6,42L150.9,164.6z M137.1,141.1
		c-4.8,0.9-7.5,5.2-6.5,10.8c1.1,6.3,5.3,9.6,10.3,8.7c3.8-0.7,6.8-3.3,7.9-8l-1.3-7.2C144.5,142.2,141.3,140.4,137.1,141.1z"/>
	<path class="st1" d="M161.2,146.9c-1.5-8.5,3.4-16.9,13.1-18.7c9.6-1.7,17.2,4,18.8,12.9c1.6,9.1-4.3,17.2-13.1,18.8
		C170.9,161.6,162.8,155.4,161.2,146.9z M168,145.6c0.9,4.8,4.7,9.4,10.9,8.2c6.8-1.2,8.1-7.3,7.4-11.5c-1.1-5.9-5.2-9.1-10.9-8.1
		C169.8,135.2,167,139.7,168,145.6z"/>
	<path class="st1" d="M114.4,171.4l-22.9-36.9l6.1-3.8l22.9,36.9L114.4,171.4z"/>
</g>
</svg>
