<?xml version="1.0" encoding="utf-8"?>
<!-- Generator: Adobe Illustrator 24.1.0, SVG Export Plug-In . SVG Version: 6.00 Build 0)  -->
<svg version="1.1" id="Ebene_1" xmlns="http://www.w3.org/2000/svg" xmlns:xlink="http://www.w3.org/1999/xlink" x="0px" y="0px"
	 viewBox="0 0 300 300" style="enable-background:new 0 0 300 300;" xml:space="preserve">
<style type="text/css">
	.st0{fill:#282828;stroke:#282828;stroke-width:4.4;stroke-miterlimit:10;}
	.st1{fill:#FFFFFF;}
	.st2{font-family:'G2TGR-Medium';}
	.st3{font-size:64.005px;}
	.st4{font-size:64.006px;}
	.st5{font-size:64px;}
</style>
<path class="st0" d="M236.4,287.3c2-0.5,3.9-1.3,5.7-2.4c3.9-2.4,6.5-5.7,7.6-9.3c1.2-4,0.6-8.2-2.2-11.7c-1.5-1.8-3.4-3.2-5.6-4.2
	c3.4-3.2,5.5-7.1,6.2-11c0.7-3.7,0.1-7.5-1.9-10.9c10.3-4.4,18.8-11.7,22.4-20.7c3.9-9.7,2.1-21.4-9.1-33.2
	c7.5-12.2,5.6-24.7-2.1-34.2c-8.8-10.9-25.1-17.8-43.4-15.9c-3.5-13-19.9-23.9-38.7-25.5c-14-1.2-29.4,2.7-41.8,14.6
	c-14.8-7.2-31.8-6.4-45.1-0.8C73.5,128.3,63,140.5,64.8,154c-18.7,2.5-30.6,14.6-33.6,27.9c-3.6,16.1,5.8,34,32.2,38.9
	c-6.6,19.1,8.4,33.3,27.1,39.2c17.9,5.6,39.1,3.5,47.9-9.1c7.2,7.1,20.9,11.4,35.1,10.5c9.9-0.6,20-3.8,28.4-10.1
	c0.3,3,1.4,5.9,3.5,8.4c2.9,3.6,7.1,5.9,11.8,6.9c-1.6,2.4-2.5,5.1-2.6,7.7c-0.1,2.8,0.8,5.6,2.8,8c2.6,3.2,6.7,5.2,11.1,5.7
	C231.1,288.2,233.8,288,236.4,287.3z"/>
<text transform="matrix(0.9936 0.1133 -0.1133 0.9936 220.8844 223.1681)" class="st1 st2 st3">!</text>
<text transform="matrix(0.9916 -0.1297 0.1297 0.9916 81.7531 245.5567)" class="st1 st2 st4">that</text>
<text transform="matrix(0.9641 0.2655 -0.2655 0.9641 131.8644 167.5032)" class="st1 st2 st5">do</text>
<text transform="matrix(0.9847 -0.1742 0.1742 0.9847 96.7526 181.7859)" class="st1 st2 st5">I</text>
</svg>
